<?xml version='1.0' encoding='utf-8'?>
<svg xmlns="http://www.w3.org/2000/svg" width="1920" height="1080" viewBox="0 0 1920 1080" data-theme="dark" data-semantic-intent="taxonomy_list" data-relation-type="taxonomy" data-site-visual-identity="signal-cobalt">
  <style>
        @font-face {
            font-family: 'Inter';
            src: url('assets/fonts/Inter-Regular.ttf') format('truetype');
            font-weight: 400;
            font-style: normal;
            font-display: swap;
        }
        @font-face {
            font-family: 'Inter';
            src: url('assets/fonts/Inter-Bold.ttf') format('truetype');
            font-weight: 600;
            font-style: normal;
            font-display: swap;
        }
        @font-face {
            font-family: 'Inter';
            src: url('assets/fonts/Inter-Bold.ttf') format('truetype');
            font-weight: 800;
            font-style: normal;
            font-display: swap;
        }
        
:root {
    --background: #0f172a;
    --panel: #1e293b;
    --primary-text: #f1f5f9;
    --muted-text: #94a3b8;
    --inverse-text: #0f172a;
    --border: #334155;
    --shadow-color: #000000;
    --icon-pad-bg: #1e293b;
    --art-glow: #7dd3fc;
    --art-glow-opacity: 0.18;
    --art-sheen: #ffffff;
    --art-sheen-opacity: 0.18;
    --art-shadow: #000000;
    --art-shadow-opacity: 0.28;
    --art-muted-line: #64748b;
    --art-panel-tint: #1e293b;
    --semantic-risk: #f87171;
    --semantic-warning: #fb923c;
    --semantic-uncertain: #fbbf24;
    --semantic-evidence: #60a5fa;
    --semantic-claim: #c084fc;
    --semantic-positive: #4ade80;
    --semantic-outcome: #22d3ee;
    --font-family: 'Inter', 'Segoe UI', 'Kalam', Roboto, Helvetica, Arial, sans-serif;
    --radius-xl: 16px;
    --font-family-headline: 'Segoe UI Variable Display', 'Aptos Display', 'Inter', 'Segoe UI', Helvetica, Arial, sans-serif;
    --font-family-body: 'Segoe UI Variable Text', 'Aptos', 'Inter', 'Segoe UI', Helvetica, Arial, sans-serif;
    --font-heading: var(--font-family-headline);
    --font-body: var(--font-family-body);
    --font-size-h1: 64px;
    --font-size-h2: 42px;
    --font-size-h3: 29px;
    --font-size-body: 21px;
    --font-size-caption: 17px;
    --secondary-text: var(--muted-text);
    --panel-border: var(--border);
    --font-weight-normal: 400;
    --font-weight-medium: 500;
    --font-weight-semibold: 600;
    --font-weight-bold: 700;
    --spacing-gutter-pct: 0.07;
    --spacing-top-pct: 0.15;
    --spacing-bottom-pct: 0.07;
    --spacing-title-y-pct: 0.055;
    --accent-1: #93c5fd;
    --accent-2: #60a5fa;
    --accent-3: #818cf8;
    --accent-4: #a78bfa;
    --accent-5: #38bdf8;
    --accent-6: #fb923c;
}
:root[data-theme="dark"] {
    --background: #0f172a;
    --panel: #1e293b;
    --primary-text: #f1f5f9;
    --muted-text: #94a3b8;
    --inverse-text: #0f172a;
    --border: #334155;
    --shadow-color: #000000;
    --icon-pad-bg: #1e293b;
    --art-glow: #7dd3fc;
    --art-glow-opacity: 0.18;
    --art-sheen: #ffffff;
    --art-sheen-opacity: 0.18;
    --art-shadow: #000000;
    --art-shadow-opacity: 0.28;
    --art-muted-line: #64748b;
    --art-panel-tint: #1e293b;
    --semantic-risk: #f87171;
    --semantic-warning: #fb923c;
    --semantic-uncertain: #fbbf24;
    --semantic-evidence: #60a5fa;
    --semantic-claim: #c084fc;
    --semantic-positive: #4ade80;
    --semantic-outcome: #22d3ee;
    --accent-1: #93c5fd;
    --accent-2: #60a5fa;
    --accent-3: #818cf8;
    --accent-4: #a78bfa;
    --accent-5: #38bdf8;
    --accent-6: #fb923c;
}
:root[data-theme="light"] {
    --background: #f8fafc;
    --panel: #ffffff;
    --primary-text: #0f172a;
    --muted-text: #64748b;
    --inverse-text: #ffffff;
    --border: #e2e8f0;
    --shadow-color: #000000;
    --icon-pad-bg: #1e293b;
    --art-glow: #0891b2;
    --art-glow-opacity: 0.10;
    --art-sheen: #ffffff;
    --art-sheen-opacity: 0.34;
    --art-shadow: #0f172a;
    --art-shadow-opacity: 0.14;
    --art-muted-line: #94a3b8;
    --art-panel-tint: #f1f5f9;
    --semantic-risk: #b91c1c;
    --semantic-warning: #c2410c;
    --semantic-uncertain: #a16207;
    --semantic-evidence: #1d4ed8;
    --semantic-claim: #6d28d9;
    --semantic-positive: #15803d;
    --semantic-outcome: #0e7490;
    --accent-1: #1d4ed8;
    --accent-2: #2563eb;
    --accent-3: #4f46e5;
    --accent-4: #6d28d9;
    --accent-5: #0369a1;
    --accent-6: #c2410c;
}</style>
  <rect x="0" y="0" width="1.92E+3" height="1.08E+3" fill="#252a34" stroke="none" id="programmatic_background"/>
  <line id="HEADER_DECOR" x1="960.0" x2="1080.0" y1="127.0" y2="127.0" stroke="var(--accent-1)" stroke-width="6" stroke-linecap="round"/>
  <defs>
    <pattern id="svg6132477d-napkin-hatch" patternUnits="userSpaceOnUse" width="12" height="12">
      <path d="M -3 12 L 12 -3 M 0 15 L 15 0" fill="none" stroke="var(--primary-text)" stroke-width="1" stroke-opacity="0.05"/>
    </pattern>
    <filter id="svg6132477d-shadow" x="-30%" y="-30%" width="160%" height="160%">
      <feDropShadow dx="0" dy="3" stdDeviation="6" flood-color="#000000" flood-opacity="0.10"/>
      <feDropShadow dx="0" dy="8" stdDeviation="12" flood-color="#000000" flood-opacity="0.16"/>
    </filter>
    <radialGradient id="svg6132477d-universal-edge-vignette" cx="50%" cy="50%" r="72%">
      <stop offset="0%" stop-color="var(--background)" stop-opacity="0"/>
      <stop offset="72%" stop-color="var(--background)" stop-opacity="0.12"/>
      <stop offset="100%" stop-color="var(--primary-text)" stop-opacity="0.08"/>
    </radialGradient>
    <linearGradient id="svg6132477d-universal-surface-sheen" x1="0%" y1="0%" x2="100%" y2="100%">
      <stop offset="0%" stop-color="var(--art-sheen)" stop-opacity="var(--art-sheen-opacity)"/>
      <stop offset="46%" stop-color="var(--art-sheen)" stop-opacity="0.035"/>
      <stop offset="100%" stop-color="var(--art-panel-tint)" stop-opacity="0.14"/>
    </linearGradient>
    <radialGradient id="svg6132477d-universal-icon-aura" cx="50%" cy="42%" r="64%">
      <stop offset="0%" stop-color="var(--art-glow)" stop-opacity="var(--art-glow-opacity)"/>
      <stop offset="100%" stop-color="var(--background)" stop-opacity="0"/>
    </radialGradient>
    <filter id="svg6132477d-text-glow" x="-20%" y="-20%" width="140%" height="140%">
      <feDropShadow dx="0" dy="0" stdDeviation="2" flood-color="#000000" flood-opacity="0.4"/>
    </filter>
    <marker id="svg6132477d-arrowhead" markerWidth="10" markerHeight="7" refX="9" refY="3.5" orient="auto" markerUnits="strokeWidth">
      <polygon points="0 0, 10 3.5, 0 7" fill="var(--muted-text)" opacity="0.6"/>
    </marker>
  </defs>
  <rect width="100%" height="100%" fill="var(--background)" id="CANVAS_BG"/>
  <rect width="100%" height="100%" fill="url(#svg6132477d-napkin-hatch)"/>
  <rect id="UNIVERSAL_EDGE_VIGNETTE" width="100%" height="100%" fill="url(#svg6132477d-universal-edge-vignette)" opacity="0.62"/>
  <text id="TITLE" x="960.0" y="59" text-anchor="middle" font-size="60" font-weight="800" fill="#f1f5f9" style="font-size: 69px; font-family: 'Segoe UI Variable Display', 'Aptos Display', 'Inter', 'Segoe UI', Helvetica, Arial, sans-serif; font-weight: 800; font-kerning: normal; font-feature-settings: &quot;kern&quot; 1, &quot;liga&quot; 1; letter-spacing:-1.2px;" data-final-font-size="69">
    <tspan x="960.0" dy="70.47px">CV-22 Osprey Technical Features</tspan>
  </text>
  <rect id="TITLE_FRAME" x="134" y="54" width="1652" height="100" fill="none"/>
  <rect x="150" y="150" width="1620" height="850" rx="40" fill="var(--panel)" fill-opacity="0.18" stroke="var(--muted-text)" stroke-width="2" opacity="0.90"/>
  <line x1="360" y1="212.0" x2="360" y2="938.0" stroke="var(--muted-text)" stroke-width="18" stroke-linecap="round" opacity="0.18"/>
  <line x1="360" y1="212.0" x2="360" y2="938.0" stroke="var(--border)" stroke-width="3" stroke-linecap="round" opacity="0.72"/>
  <g id="DIAGRAM_MAIN">
    <g filter="url(#svg6132477d-shadow)">
      <line x1="404.0" y1="240.0" x2="420.0" y2="240.0" stroke="var(--accent-1)" stroke-width="5" opacity="0.76" stroke-linecap="round"/>
      <rect id="ITEM_1_BG" x="420.0" y="174.0" width="1085" height="152" rx="22" fill="var(--panel)" fill-opacity="0.97" stroke="var(--accent-1)" stroke-width="2.5"/>
      <rect x="420.0" y="174.0" width="1085" height="152" rx="16" fill="url(#svg6132477d-universal-surface-sheen)" opacity="0.88"/>
      <rect x="420.0" y="174.0" width="14" height="132" rx="7" fill="var(--accent-1)" fill-opacity="0.90"/>
      <circle id="ITEM_1_PAD" cx="360" cy="240.0" r="46" fill="var(--icon-pad-bg)" opacity="1" fill-opacity="0.9" stroke-width="2" stroke="var(--accent-1)" stroke-opacity="0.72" data-badge-layer="pad"/>
      <circle id="ITEM_1_PAD_INNER" cx="360" cy="240.0" r="35.88" fill="var(--accent-1)" fill-opacity="0.12" stroke="none" data-badge-layer="tint"/>
      <circle cx="360" cy="240.0" r="38" fill="none" stroke="var(--accent-1)" stroke-width="3" stroke-dasharray="6 4" display="none" data-suppressed-decoration="redundant-badge-ring"/>
      <g id="ITEM_1_ICON" transform="translate(324, 204.0)" data-icon-size="72" stroke-linecap="round" stroke-linejoin="round" data-badge-treatment="clean">
        <g transform="translate(-5.142857142857142,-4.499999999999997) scale(3.4285714285714284)" vector-effect="non-scaling-stroke" stroke-width="2.58" stroke-linecap="round" stroke-linejoin="round" stroke-opacity="1.0">
          <path d="M12 13m-3 0a3 3 0 1 0 6 0a3 3 0 1 0 -6 0" vector-effect="non-scaling-stroke" fill="none" stroke="#f1f5f9"/>
          <path d="M14.167 10.5c.722 -1.538 1.156 -3.043 1.303 -4.514c.22 -1.63 -.762 -2.986 -3.47 -2.986s-3.69 1.357 -3.47 2.986c.147 1.471 .581 2.976 1.303 4.514" vector-effect="non-scaling-stroke" fill="none" stroke="#f1f5f9"/>
          <path d="M13.169 16.751c.97 1.395 2.057 2.523 3.257 3.386c1.3 1 2.967 .833 4.321 -1.512c1.354 -2.345 .67 -3.874 -.85 -4.498c-1.348 -.608 -2.868 -.985 -4.562 -1.128" vector-effect="non-scaling-stroke" fill="none" stroke="#f1f5f9"/>
          <path d="M8.664 13c-1.693 .143 -3.213 .52 -4.56 1.128c-1.522 .623 -2.206 2.153 -.852 4.498s3.02 2.517 4.321 1.512c1.2 -.863 2.287 -1.991 3.258 -3.386" vector-effect="non-scaling-stroke" fill="none" stroke="#f1f5f9"/>
        </g>
      </g>
      <text id="ITEM_1_HEAD" x="500.0" y="192.0" text-anchor="start" font-weight="800" font-size="30" fill="var(--accent-1)" data-bg-id="ITEM_1_BG" fill-opacity="1.0" stroke="none" style="font-size: 31px; font-family: 'Segoe UI Variable Display', 'Aptos Display', 'Inter', 'Segoe UI', Helvetica, Arial, sans-serif; font-weight: 700; font-kerning: normal; font-feature-settings: &quot;kern&quot; 1, &quot;liga&quot; 1; letter-spacing:-0.4px;" data-final-font-size="31">
        <tspan x="500.0" dy="27.40px">Tiltrotor Mechanism</tspan>
      </text>
      <rect id="ITEM_1_HEAD_FRAME" x="500" y="192.0" width="760" height="32" fill="none"/>
      <text id="ITEM_1_BODY" x="500.0" y="230.0" text-anchor="start" font-size="24" fill="var(--primary-text)" data-bg-id="ITEM_1_BG" style="font-size: 23px; font-family: 'Segoe UI Variable Text', 'Aptos', 'Inter', 'Segoe UI', Helvetica, Arial, sans-serif; font-weight: 400; font-kerning: normal; font-feature-settings: &quot;kern&quot; 1, &quot;liga&quot; 1;" data-final-font-size="23">
        <tspan x="500.0" dy="30.10px">Engines rotate from vertical to horizontal positions</tspan>
      </text>
      <rect id="ITEM_1_BODY_FRAME" x="500" y="230.0" width="860" height="72" fill="none"/>
      <text x="1460" y="216.0" text-anchor="end" font-size="18" font-weight="800" fill="var(--accent-1)" opacity="0.70">01</text>
    </g>
    <g filter="url(#svg6132477d-shadow)">
      <line x1="404.0" y1="407.5" x2="420.0" y2="407.5" stroke="var(--accent-2)" stroke-width="5" opacity="0.76" stroke-linecap="round"/>
      <rect id="ITEM_2_BG" x="420.0" y="341.5" width="1085" height="152" rx="22" fill="var(--panel)" fill-opacity="0.97" stroke="var(--accent-2)" stroke-width="2.5"/>
      <rect x="420.0" y="341.5" width="1085" height="152" rx="16" fill="url(#svg6132477d-universal-surface-sheen)" opacity="0.88"/>
      <rect x="420.0" y="341.5" width="14" height="132" rx="7" fill="var(--accent-2)" fill-opacity="0.90"/>
      <circle id="ITEM_2_PAD" cx="360" cy="407.5" r="46" fill="var(--icon-pad-bg)" opacity="1" fill-opacity="0.9" stroke-width="2" stroke="var(--accent-2)" stroke-opacity="0.72" data-badge-layer="pad"/>
      <circle id="ITEM_2_PAD_INNER" cx="360" cy="407.5" r="35.88" fill="var(--accent-2)" fill-opacity="0.12" stroke="none" data-badge-layer="tint"/>
      <circle cx="360" cy="407.5" r="38" fill="none" stroke="var(--accent-2)" stroke-width="3" stroke-dasharray="6 4" display="none" data-suppressed-decoration="redundant-badge-ring"/>
      <g id="ITEM_2_ICON" transform="translate(324, 371.5)" data-icon-size="72" stroke-linecap="round" stroke-linejoin="round" data-badge-treatment="clean">
        <g transform="translate(-5.142857142857143,-4.500000000000004) scale(2.5714285714285716)">
          <path d="M25.0642 23.4047L23.9155 20.598L22.2011 21.2996L23.3511 24.1097L23.3525 24.113C23.5183 24.5137 23.3281 24.9545 22.9426 25.1096L18.0368 27.1219L18.0342 27.123C17.6335 27.2888 17.1927 27.0987 17.0376 26.7132L15.8855 23.898L14.1711 24.5997L15.3202 27.4074C15.8659 28.7594 17.403 29.3881 18.741 28.8353L18.7425 28.8347L23.6372 26.8268C24.9889 26.281 25.6173 24.7444 25.065 23.4066L25.0642 23.4047ZM8 23.5L9.70824 26.7789C10.3282 27.4289 10.2982 28.4589 9.63824 29.0689C8.98824 29.6789 7.95824 29.6489 7.34824 28.9989L2.43824 23.7889C1.82824 23.1389 1.85824 22.1089 2.50824 21.4989C3.15824 20.8889 4.18824 20.9189 4.79824 21.5689L8 23.5Z" fill="#FFB02E"/>
          <path d="M29.2283 15.0788L17.6783 2.82884C16.4083 1.47884 14.1783 1.82887 13.3883 3.50887L4.79834 21.5689L9.76834 26.8389L28.3083 19.3288C30.0183 18.6388 30.4983 16.4288 29.2283 15.0788Z" fill="#F9C23C"/>
        </g>
      </g>
      <text id="ITEM_2_HEAD" x="500.0" y="359.5" text-anchor="start" font-weight="800" font-size="30" fill="var(--accent-2)" data-bg-id="ITEM_2_BG" fill-opacity="1.0" stroke="none" style="font-size: 31px; font-family: 'Segoe UI Variable Display', 'Aptos Display', 'Inter', 'Segoe UI', Helvetica, Arial, sans-serif; font-weight: 700; font-kerning: normal; font-feature-settings: &quot;kern&quot; 1, &quot;liga&quot; 1; letter-spacing:-0.4px;" data-final-font-size="31">
        <tspan x="500.0" dy="27.40px">Acoustic Profile</tspan>
      </text>
      <rect id="ITEM_2_HEAD_FRAME" x="500" y="359.5" width="760" height="32" fill="none"/>
      <text id="ITEM_2_BODY" x="500.0" y="397.5" text-anchor="start" font-size="24" fill="var(--primary-text)" data-bg-id="ITEM_2_BG" style="font-size: 23px; font-family: 'Segoe UI Variable Text', 'Aptos', 'Inter', 'Segoe UI', Helvetica, Arial, sans-serif; font-weight: 400; font-kerning: normal; font-feature-settings: &quot;kern&quot; 1, &quot;liga&quot; 1;" data-final-font-size="23">
        <tspan x="500.0" dy="30.10px">Produces unique buzzing and low-frequency vibrations</tspan>
      </text>
      <rect id="ITEM_2_BODY_FRAME" x="500" y="397.5" width="860" height="72" fill="none"/>
      <text x="1460" y="383.5" text-anchor="end" font-size="18" font-weight="800" fill="var(--accent-2)" opacity="0.70">02</text>
    </g>
    <g filter="url(#svg6132477d-shadow)">
      <line x1="404.0" y1="575.0" x2="420.0" y2="575.0" stroke="var(--accent-3)" stroke-width="5" opacity="0.76" stroke-linecap="round"/>
      <rect id="ITEM_3_BG" x="420.0" y="509.0" width="1085" height="152" rx="22" fill="var(--panel)" fill-opacity="0.97" stroke="var(--accent-3)" stroke-width="2.5"/>
      <rect x="420.0" y="509.0" width="1085" height="152" rx="16" fill="url(#svg6132477d-universal-surface-sheen)" opacity="0.88"/>
      <rect x="420.0" y="509.0" width="14" height="132" rx="7" fill="var(--accent-3)" fill-opacity="0.90"/>
      <circle id="ITEM_3_PAD" cx="360" cy="575.0" r="46" fill="var(--icon-pad-bg)" opacity="1" fill-opacity="0.9" stroke-width="2" stroke="var(--accent-3)" stroke-opacity="0.72" data-badge-layer="pad"/>
      <circle id="ITEM_3_PAD_INNER" cx="360" cy="575.0" r="35.88" fill="var(--accent-3)" fill-opacity="0.12" stroke="none" data-badge-layer="tint"/>
      <circle cx="360" cy="575.0" r="38" fill="none" stroke="var(--accent-3)" stroke-width="3" stroke-dasharray="6 4" display="none" data-suppressed-decoration="redundant-badge-ring"/>
      <g id="ITEM_3_ICON" transform="translate(324, 539.0)" data-icon-size="72" stroke-linecap="round" stroke-linejoin="round" data-badge-treatment="clean">
        <g transform="translate(-5.142857142857143,-7.714285714285719) scale(2.5714285714285716)" vector-effect="non-scaling-stroke" fill="#f1f5f9" fill-opacity="1.0" stroke="none">
          <path fill="#f1f5f9" d="m29.81 16l-7-9.56A1 1 0 0 0 22 6H3a1 1 0 0 0-1 1v17a1 1 0 0 0 1 1h2.14a4 4 0 0 0 7.72 0h6.28a4 4 0 0 0 7.72 0H29a1 1 0 0 0 1-1v-7.44a1 1 0 0 0-.19-.56M20 8h1.49l5.13 7H20ZM9 26a2 2 0 1 1 2-2a2 2 0 0 1-2 2m14 0a2 2 0 1 1 2-2a2 2 0 0 1-2 2m5-3h-1.14a4 4 0 0 0-7.72 0h-6.28a4 4 0 0 0-7.72 0H4V8h14v9h10Z" vector-effect="non-scaling-stroke" stroke="none"/>
        </g>
      </g>
      <text id="ITEM_3_HEAD" x="500.0" y="527.0" text-anchor="start" font-weight="800" font-size="30" fill="var(--accent-3)" data-bg-id="ITEM_3_BG" fill-opacity="1.0" stroke="none" style="font-size: 31px; font-family: 'Segoe UI Variable Display', 'Aptos Display', 'Inter', 'Segoe UI', Helvetica, Arial, sans-serif; font-weight: 700; font-kerning: normal; font-feature-settings: &quot;kern&quot; 1, &quot;liga&quot; 1; letter-spacing:-0.4px;" data-final-font-size="31">
        <tspan x="500.0" dy="27.40px">Operational Role</tspan>
      </text>
      <rect id="ITEM_3_HEAD_FRAME" x="500" y="527.0" width="760" height="32" fill="none"/>
      <text id="ITEM_3_BODY" x="500.0" y="565.0" text-anchor="start" font-size="24" fill="var(--primary-text)" data-bg-id="ITEM_3_BG" style="font-size: 23px; font-family: 'Segoe UI Variable Text', 'Aptos', 'Inter', 'Segoe UI', Helvetica, Arial, sans-serif; font-weight: 400; font-kerning: normal; font-feature-settings: &quot;kern&quot; 1, &quot;liga&quot; 1;" data-final-font-size="23">
        <tspan x="500.0" dy="30.10px">Used for long-range special forces transport missions</tspan>
      </text>
      <rect id="ITEM_3_BODY_FRAME" x="500" y="565.0" width="860" height="72" fill="none"/>
      <text x="1460" y="551.0" text-anchor="end" font-size="18" font-weight="800" fill="var(--accent-3)" opacity="0.70">03</text>
    </g>
    <g filter="url(#svg6132477d-shadow)">
      <line x1="404.0" y1="742.5" x2="420.0" y2="742.5" stroke="var(--accent-4)" stroke-width="5" opacity="0.76" stroke-linecap="round"/>
      <rect id="ITEM_4_BG" x="420.0" y="676.5" width="1085" height="152" rx="22" fill="var(--panel)" fill-opacity="0.97" stroke="var(--accent-4)" stroke-width="2.5"/>
      <rect x="420.0" y="676.5" width="1085" height="152" rx="16" fill="url(#svg6132477d-universal-surface-sheen)" opacity="0.88"/>
      <rect x="420.0" y="676.5" width="14" height="132" rx="7" fill="var(--accent-4)" fill-opacity="0.90"/>
      <circle id="ITEM_4_PAD" cx="360" cy="742.5" r="46" fill="var(--icon-pad-bg)" opacity="1" fill-opacity="0.9" stroke-width="2" stroke="var(--accent-1)" stroke-opacity="0.72" data-badge-layer="pad"/>
      <circle id="ITEM_4_PAD_INNER" cx="360" cy="742.5" r="35.88" fill="var(--accent-1)" fill-opacity="0.12" stroke="none" data-badge-layer="tint"/>
      <circle cx="360" cy="742.5" r="38" fill="none" stroke="var(--accent-4)" stroke-width="3" stroke-dasharray="6 4" display="none" data-suppressed-decoration="redundant-badge-ring"/>
      <g id="ITEM_4_ICON" transform="translate(324, 706.5)" data-icon-size="72" stroke-linecap="round" stroke-linejoin="round" data-badge-treatment="clean">
        <g transform="translate(-4.778761061946901,-4.460176991150442) scale(2.5486725663716814)">
          <path d="M19.455 24.44C18.934 24.44 18.398 24.425 17.855 24.408C17.263 24.391 16.644 24.372 15.995 24.372C8.92103 24.372 5.06703 21.423 2.69503 14.194C1.87203 11.682 1.90603 9.82202 2.79503 8.50802C4.12003 6.55802 6.89503 6.38802 9.58003 6.22402C11.664 6.09602 13.818 5.96402 14.834 5.00502C18.224 1.80502 22.612 1.08302 26.018 3.15202C28.652 4.75202 30.918 8.40702 29.363 13.852C28.6285 16.6652 27.4104 19.3292 25.763 21.725C24.06 24.084 21.916 24.44 19.455 24.44ZM21.841 3.99402C19.7175 4.06887 17.7024 4.95038 16.206 6.45902C14.663 7.91602 12.14 8.07102 9.70003 8.22002C7.50003 8.35402 5.22003 8.49402 4.44703 9.63202C3.93403 10.388 3.98103 11.714 4.58903 13.571C6.66803 19.904 9.86403 22.371 15.989 22.371C16.658 22.371 17.298 22.39 17.908 22.408C21.056 22.501 22.762 22.462 24.139 20.557C25.6493 18.3497 26.7658 15.8974 27.439 13.309C28.48 9.65402 27.539 6.41802 24.979 4.86202C24.0333 4.28846 22.9471 3.98802 21.841 3.99402Z" fill="#5235A6"/>
          <path d="M17 13.8921H22.49H24.99C27.76 13.8921 30 16.1321 30 18.9021V21.082V23.8721V23.972C30 27.292 27.31 29.982 23.99 29.982H21.44C19.95 29.982 18.58 29.142 17.91 27.802L17.45 26.882C17.17 26.342 16.61 25.992 16 25.992C15.38 25.992 14.82 26.332 14.55 26.882L14.09 27.802C13.42 29.132 12.06 29.982 10.56 29.982H8.01C4.69 29.982 2 27.292 2 23.972V23.8721V21.082V18.9021C2 16.1321 4.24 13.8921 7.01 13.8921H9.51H15H17Z" fill="#00A6ED"/>
          <path d="M24.99 16.072H22.49H17H15H9.51H7.01C4.24 16.072 2 18.312 2 21.082V23.002C2 25.652 4.15 27.802 6.8 27.802H10.56C12.06 27.802 13.42 26.952 14.09 25.622L14.55 24.702C14.82 24.152 15.38 23.812 16 23.812C16.62 23.812 17.17 24.162 17.45 24.702L17.91 25.622C18.58 26.962 19.95 27.802 21.44 27.802H25.2C27.85 27.802 30 25.652 30 23.002V21.082C30 18.312 27.76 16.072 24.99 16.072Z" fill="#83CBFF"/>
          <path d="M12.7071 19.6992C13.0976 19.3086 13.0976 18.6755 12.7071 18.285C12.3166 17.8944 11.6834 17.8944 11.2929 18.285L4.8029 24.775C4.41238 25.1655 4.41238 25.7986 4.8029 26.1892C5.19343 26.5797 5.82659 26.5797 6.21712 26.1892L12.7071 19.6992Z" fill="#AEDDFF"/>
          <path d="M27.7071 19.6992C28.0976 19.3086 28.0976 18.6755 27.7071 18.285C27.3166 17.8944 26.6834 17.8944 26.2929 18.285L19.8029 24.775C19.4124 25.1655 19.4124 25.7986 19.8029 26.1892C20.1934 26.5797 20.8266 26.5797 21.2171 26.1892L27.7071 19.6992Z" fill="#AEDDFF"/>
        </g>
      </g>
      <text id="ITEM_4_HEAD" x="500.0" y="694.5" text-anchor="start" font-weight="800" font-size="30" fill="var(--accent-1)" data-bg-id="ITEM_4_BG" fill-opacity="1.0" stroke="none" style="font-size: 31px; font-family: 'Segoe UI Variable Display', 'Aptos Display', 'Inter', 'Segoe UI', Helvetica, Arial, sans-serif; font-weight: 700; font-kerning: normal; font-feature-settings: &quot;kern&quot; 1, &quot;liga&quot; 1; letter-spacing:-0.4px;" data-final-font-size="31">
        <tspan x="500.0" dy="27.40px">Night Vision Compatibility</tspan>
      </text>
      <rect id="ITEM_4_HEAD_FRAME" x="500" y="694.5" width="760" height="32" fill="none"/>
      <text id="ITEM_4_BODY" x="500.0" y="732.5" text-anchor="start" font-size="24" fill="var(--primary-text)" data-bg-id="ITEM_4_BG" style="font-size: 23px; font-family: 'Segoe UI Variable Text', 'Aptos', 'Inter', 'Segoe UI', Helvetica, Arial, sans-serif; font-weight: 400; font-kerning: normal; font-feature-settings: &quot;kern&quot; 1, &quot;liga&quot; 1;" data-final-font-size="23">
        <tspan x="500.0" dy="30.10px">Lights designed for crew visibility in darkness</tspan>
      </text>
      <rect id="ITEM_4_BODY_FRAME" x="500" y="732.5" width="860" height="72" fill="none"/>
      <text x="1460" y="718.5" text-anchor="end" font-size="18" font-weight="800" fill="var(--accent-4)" opacity="0.70">04</text>
    </g>
    <g filter="url(#svg6132477d-shadow)">
      <line x1="404.0" y1="910.0" x2="420.0" y2="910.0" stroke="var(--accent-5)" stroke-width="5" opacity="0.76" stroke-linecap="round"/>
      <rect id="ITEM_5_BG" x="420.0" y="844.0" width="1085" height="152" rx="22" fill="var(--panel)" fill-opacity="0.97" stroke="var(--accent-5)" stroke-width="2.5"/>
      <rect x="420.0" y="844.0" width="1085" height="152" rx="16" fill="url(#svg6132477d-universal-surface-sheen)" opacity="0.88"/>
      <rect x="420.0" y="844.0" width="14" height="132" rx="7" fill="var(--accent-5)" fill-opacity="0.90"/>
      <circle id="ITEM_5_PAD" cx="360" cy="910.0" r="46" fill="var(--icon-pad-bg)" opacity="1" fill-opacity="0.9" stroke-width="2" stroke="var(--accent-2)" stroke-opacity="0.72" data-badge-layer="pad"/>
      <circle id="ITEM_5_PAD_INNER" cx="360" cy="910.0" r="35.88" fill="var(--accent-2)" fill-opacity="0.12" stroke="none" data-badge-layer="tint"/>
      <circle cx="360" cy="910.0" r="38" fill="none" stroke="var(--accent-5)" stroke-width="3" stroke-dasharray="6 4" display="none" data-suppressed-decoration="redundant-badge-ring"/>
      <g id="ITEM_5_ICON" transform="translate(324, 874.0)" data-icon-size="72" stroke-linecap="round" stroke-linejoin="round" data-badge-treatment="clean">
        <g transform="translate(-5.142857142857143,-7.392857142857144) scale(2.5714285714285716)">
          <path d="M8.97695 9.81822C7.68369 9.81822 7.53001 10.5467 7.61483 10.9109V25.3158L24.7324 27.2146L30.0002 22.5V15.0422L23.1876 8.26566L22.8596 8.02197L15.5002 9L12.4142 8.02197C12.2033 8.15625 11.951 8.32512 11.8094 8.46545C10.993 9.27463 10.3546 9.81822 8.97695 9.81822Z" fill="#8C5543"/>
          <path d="M13.6198 9.31063C13.035 9.08884 12.4462 8.80135 11.8037 8.47407C12.4581 7.81966 14.0595 6.21636 15.2299 5.03847C16.6928 3.5661 18.656 3.69821 19.9679 5.03847C20.2326 5.30884 20.5296 5.60931 20.8363 5.91774C18.5156 7.0625 16.3906 7.6875 13.6198 9.31063Z" fill="#CDC4D6"/>
          <path d="M13.1558 9.12228C14.1001 9.52955 15.0007 9.7862 16.0606 9.7862C17.6085 9.7862 18.8166 9.19163 19.4207 8.87073C20.0247 8.54982 21.0818 8.2006 21.9973 8.2006C22.7003 8.2006 23.0885 8.25855 23.2104 8.29102C22.8107 7.89374 22.362 7.44613 21.9279 7.00997C21.5508 6.63436 21.1458 6.22946 20.7593 5.84035C19.4543 4.68908 17.6172 4.64256 16.23 6.03871C15.2344 7.04072 13.9269 8.35058 13.1558 9.12228Z" fill="#F4F4F4"/>
          <path d="M5.96834 11.2402C5.07024 12.3299 2.95313 14.8594 2.00684 15.9879V22.5L16 27.8125L22.9724 25.3105L15.8325 18.1406C14.7667 17.0629 13.3627 16.2097 11.7162 16.2097C9.99483 16.2097 8.99195 14.7428 8.99195 13.0065C8.99195 10.9666 12.3886 10.1728 13.1604 9.12524C12.4433 8.81133 12.1057 8.64478 11.8209 8.46558C10.6252 9.68774 9.79822 9.78931 9.29321 9.78931C8.96166 9.78931 7.59646 9.61208 5.96834 11.2402Z" fill="#7D4533"/>
          <path d="M11.0125 23.0202C7.06082 21.6581 4.12549 21.9275 2 22.4664V29.9955H30V22.4609C26.8267 23.8679 23.4212 25.0261 20.0084 25.0261C16.5956 25.0261 14.9641 24.3824 11.0125 23.0202Z" fill="#00D26A"/>
        </g>
      </g>
      <text id="ITEM_5_HEAD" x="500.0" y="862.0" text-anchor="start" font-weight="800" font-size="30" fill="var(--accent-2)" data-bg-id="ITEM_5_BG" fill-opacity="1.0" stroke="none" style="font-size: 31px; font-family: 'Segoe UI Variable Display', 'Aptos Display', 'Inter', 'Segoe UI', Helvetica, Arial, sans-serif; font-weight: 700; font-kerning: normal; font-feature-settings: &quot;kern&quot; 1, &quot;liga&quot; 1; letter-spacing:-0.4px;" data-final-font-size="31">
        <tspan x="500.0" dy="27.40px">Low-Level Flight</tspan>
      </text>
      <rect id="ITEM_5_HEAD_FRAME" x="500" y="862.0" width="760" height="32" fill="none"/>
      <text id="ITEM_5_BODY" x="500.0" y="900.0" text-anchor="start" font-size="24" fill="var(--primary-text)" data-bg-id="ITEM_5_BG" style="font-size: 23px; font-family: 'Segoe UI Variable Text', 'Aptos', 'Inter', 'Segoe UI', Helvetica, Arial, sans-serif; font-weight: 400; font-kerning: normal; font-feature-settings: &quot;kern&quot; 1, &quot;liga&quot; 1;" data-final-font-size="23">
        <tspan x="500.0" dy="30.10px">Capable of high-speed maneuvers at low altitudes</tspan>
      </text>
      <rect id="ITEM_5_BODY_FRAME" x="500" y="900.0" width="860" height="72" fill="none"/>
      <text x="1460" y="886.0" text-anchor="end" font-size="18" font-weight="800" fill="var(--accent-5)" opacity="0.70">05</text>
    </g>
  </g>
  <text id="SOURCE_NOTE" x="134.0" y="1058.0" fill="var(--muted-text)" opacity="0.88" style="font-family: var(--font-family); font-size: 20px;">Source: Introduction</text>
</svg>
