<?xml version='1.0' encoding='utf-8'?>
<svg xmlns="http://www.w3.org/2000/svg" width="1920" height="1080" viewBox="0 0 1920 1080" data-theme="dark" data-semantic-intent="uncertain_compare" data-relation-type="hypothesis_comparison" data-site-visual-identity="signal-cobalt">
  <style>
        @font-face {
            font-family: 'Inter';
            src: url('assets/fonts/Inter-Regular.ttf') format('truetype');
            font-weight: 400;
            font-style: normal;
            font-display: swap;
        }
        @font-face {
            font-family: 'Inter';
            src: url('assets/fonts/Inter-Bold.ttf') format('truetype');
            font-weight: 600;
            font-style: normal;
            font-display: swap;
        }
        @font-face {
            font-family: 'Inter';
            src: url('assets/fonts/Inter-Bold.ttf') format('truetype');
            font-weight: 800;
            font-style: normal;
            font-display: swap;
        }
        
:root {
    --background: #0f172a;
    --panel: #1e293b;
    --primary-text: #f1f5f9;
    --muted-text: #94a3b8;
    --inverse-text: #0f172a;
    --border: #334155;
    --shadow-color: #000000;
    --icon-pad-bg: #1e293b;
    --art-glow: #7dd3fc;
    --art-glow-opacity: 0.18;
    --art-sheen: #ffffff;
    --art-sheen-opacity: 0.18;
    --art-shadow: #000000;
    --art-shadow-opacity: 0.28;
    --art-muted-line: #64748b;
    --art-panel-tint: #1e293b;
    --semantic-risk: #f87171;
    --semantic-warning: #fb923c;
    --semantic-uncertain: #fbbf24;
    --semantic-evidence: #60a5fa;
    --semantic-claim: #c084fc;
    --semantic-positive: #4ade80;
    --semantic-outcome: #22d3ee;
    --font-family: 'Inter', 'Segoe UI', 'Kalam', Roboto, Helvetica, Arial, sans-serif;
    --radius-xl: 16px;
    --font-family-headline: 'Segoe UI Variable Display', 'Aptos Display', 'Inter', 'Segoe UI', Helvetica, Arial, sans-serif;
    --font-family-body: 'Segoe UI Variable Text', 'Aptos', 'Inter', 'Segoe UI', Helvetica, Arial, sans-serif;
    --font-heading: var(--font-family-headline);
    --font-body: var(--font-family-body);
    --font-size-h1: 64px;
    --font-size-h2: 42px;
    --font-size-h3: 29px;
    --font-size-body: 21px;
    --font-size-caption: 17px;
    --secondary-text: var(--muted-text);
    --panel-border: var(--border);
    --font-weight-normal: 400;
    --font-weight-medium: 500;
    --font-weight-semibold: 600;
    --font-weight-bold: 700;
    --spacing-gutter-pct: 0.07;
    --spacing-top-pct: 0.15;
    --spacing-bottom-pct: 0.07;
    --spacing-title-y-pct: 0.055;
    --accent-1: #93c5fd;
    --accent-2: #60a5fa;
    --accent-3: #818cf8;
    --accent-4: #a78bfa;
    --accent-5: #38bdf8;
    --accent-6: #fb923c;
}
:root[data-theme="dark"] {
    --background: #0f172a;
    --panel: #1e293b;
    --primary-text: #f1f5f9;
    --muted-text: #94a3b8;
    --inverse-text: #0f172a;
    --border: #334155;
    --shadow-color: #000000;
    --icon-pad-bg: #1e293b;
    --art-glow: #7dd3fc;
    --art-glow-opacity: 0.18;
    --art-sheen: #ffffff;
    --art-sheen-opacity: 0.18;
    --art-shadow: #000000;
    --art-shadow-opacity: 0.28;
    --art-muted-line: #64748b;
    --art-panel-tint: #1e293b;
    --semantic-risk: #f87171;
    --semantic-warning: #fb923c;
    --semantic-uncertain: #fbbf24;
    --semantic-evidence: #60a5fa;
    --semantic-claim: #c084fc;
    --semantic-positive: #4ade80;
    --semantic-outcome: #22d3ee;
    --accent-1: #93c5fd;
    --accent-2: #60a5fa;
    --accent-3: #818cf8;
    --accent-4: #a78bfa;
    --accent-5: #38bdf8;
    --accent-6: #fb923c;
}
:root[data-theme="light"] {
    --background: #f8fafc;
    --panel: #ffffff;
    --primary-text: #0f172a;
    --muted-text: #64748b;
    --inverse-text: #ffffff;
    --border: #e2e8f0;
    --shadow-color: #000000;
    --icon-pad-bg: #1e293b;
    --art-glow: #0891b2;
    --art-glow-opacity: 0.10;
    --art-sheen: #ffffff;
    --art-sheen-opacity: 0.34;
    --art-shadow: #0f172a;
    --art-shadow-opacity: 0.14;
    --art-muted-line: #94a3b8;
    --art-panel-tint: #f1f5f9;
    --semantic-risk: #b91c1c;
    --semantic-warning: #c2410c;
    --semantic-uncertain: #a16207;
    --semantic-evidence: #1d4ed8;
    --semantic-claim: #6d28d9;
    --semantic-positive: #15803d;
    --semantic-outcome: #0e7490;
    --accent-1: #1d4ed8;
    --accent-2: #2563eb;
    --accent-3: #4f46e5;
    --accent-4: #6d28d9;
    --accent-5: #0369a1;
    --accent-6: #c2410c;
}</style>
  <rect x="0" y="0" width="1.92E+3" height="1.08E+3" fill="#252a34" stroke="none" id="programmatic_background"/>
  <line id="HEADER_DECOR" x1="960.0" x2="1080.0" y1="85.0" y2="85.0" stroke="var(--accent-1)" stroke-width="6" stroke-linecap="round"/>
  <defs>
    <pattern id="svg79d3aab7-napkin-hatch" patternUnits="userSpaceOnUse" width="12" height="12">
      <path d="M -3 12 L 12 -3 M 0 15 L 15 0" fill="none" stroke="var(--primary-text)" stroke-width="1" stroke-opacity="0.05"/>
    </pattern>
    <filter id="svg79d3aab7-shadow" x="-30%" y="-30%" width="160%" height="160%">
      <feDropShadow dx="0" dy="2" stdDeviation="3" flood-color="#000000" flood-opacity="0.08"/>
      <feDropShadow dx="0" dy="6" stdDeviation="10" flood-color="#000000" flood-opacity="0.12"/>
    </filter>
    <marker id="svg79d3aab7-arrowhead" markerWidth="10" markerHeight="10" refX="9" refY="5" orient="auto">
      <path d="M 0 0 L 10 5 L 0 10 Z" fill="var(--accent-1)"/>
    </marker>
    <filter id="svg79d3aab7-text-glow" x="-20%" y="-20%" width="140%" height="140%">
      <feDropShadow dx="0" dy="0" stdDeviation="2" flood-color="#000000" flood-opacity="0.4"/>
    </filter>
    <radialGradient id="svg79d3aab7-universal-edge-vignette" cx="50%" cy="50%" r="72%">
      <stop offset="0%" stop-color="var(--background)" stop-opacity="0"/>
      <stop offset="72%" stop-color="var(--background)" stop-opacity="0.12"/>
      <stop offset="100%" stop-color="var(--primary-text)" stop-opacity="0.08"/>
    </radialGradient>
    <linearGradient id="svg79d3aab7-universal-surface-sheen" x1="0%" y1="0%" x2="100%" y2="100%">
      <stop offset="0%" stop-color="var(--art-sheen)" stop-opacity="var(--art-sheen-opacity)"/>
      <stop offset="46%" stop-color="var(--art-sheen)" stop-opacity="0.035"/>
      <stop offset="100%" stop-color="var(--art-panel-tint)" stop-opacity="0.14"/>
    </linearGradient>
    <radialGradient id="svg79d3aab7-universal-icon-aura" cx="50%" cy="42%" r="64%">
      <stop offset="0%" stop-color="var(--art-glow)" stop-opacity="var(--art-glow-opacity)"/>
      <stop offset="100%" stop-color="var(--background)" stop-opacity="0"/>
    </radialGradient>
    <linearGradient id="svg79d3aab7-card-panel-sheen" x1="0%" y1="0%" x2="100%" y2="100%">
      <stop offset="0%" stop-color="var(--inverse-text)" stop-opacity="0.20"/>
      <stop offset="48%" stop-color="var(--inverse-text)" stop-opacity="0.04"/>
      <stop offset="100%" stop-color="var(--background)" stop-opacity="0.16"/>
    </linearGradient>
    <radialGradient id="svg79d3aab7-card-icon-glow" cx="50%" cy="35%" r="62%">
      <stop offset="0%" stop-color="var(--inverse-text)" stop-opacity="0.22"/>
      <stop offset="100%" stop-color="var(--background)" stop-opacity="0"/>
    </radialGradient>
  </defs>
  <rect width="100%" height="100%" fill="var(--background)" id="CANVAS_BG"/>
  <rect width="100%" height="100%" fill="url(#svg79d3aab7-napkin-hatch)"/>
  <rect id="UNIVERSAL_EDGE_VIGNETTE" width="100%" height="100%" fill="url(#svg79d3aab7-universal-edge-vignette)" opacity="0.62"/>
  <text id="TITLE" x="960.0" y="59" font-size="48" font-weight="700" fill="#f1f5f9" text-anchor="middle" style="font-size: 69px; font-family: 'Segoe UI Variable Display', 'Aptos Display', 'Inter', 'Segoe UI', Helvetica, Arial, sans-serif; font-weight: 800; font-kerning: normal; font-feature-settings: &quot;kern&quot; 1, &quot;liga&quot; 1; letter-spacing:-1.2px;" data-final-font-size="69">
    <tspan x="960.0" dy="70.47px">Interpretations of the Amaranth Evidence</tspan>
  </text>
  <rect id="TITLE_FRAME" x="134" y="25" width="1652" height="70" fill="none"/>
  <g id="DIAGRAM_MAIN">
    <rect id="ITEM_1_BG" x="485" y="170" width="480" height="410" rx="16" fill="var(--semantic-uncertain)" stroke="var(--accent-1)" stroke-width="2" filter="url(#svg79d3aab7-shadow)" fill-opacity="0.4"/>
    <rect x="485" y="170" width="480" height="410" rx="16" fill="url(#svg79d3aab7-card-panel-sheen)" opacity="0.88"/>
    <rect x="485" y="186" width="460" height="12" fill="var(--accent-1)"/>
    <rect id="ITEM_1_HEAD_FRAME" x="500" y="288" width="450" height="96" fill="none"/>
    <rect id="ITEM_1_BODY_FRAME" x="500" y="382" width="450" height="168" fill="none"/>
    <circle id="ITEM_1_PAD" cx="715" cy="231" r="55" fill="var(--icon-pad-bg)" stroke="var(--semantic-uncertain)" opacity="1" fill-opacity="0.9" stroke-width="2" stroke-opacity="0.72" data-badge-layer="pad"/>
    <circle cx="715" cy="231" r="44" fill="none" stroke="var(--accent-1)" stroke-width="3" stroke-dasharray="6 4" display="none" data-suppressed-decoration="redundant-badge-ring"/>
    <circle id="ITEM_1_BADGE" cx="715" cy="231" r="43" fill="var(--accent-1)" stroke="var(--background)" stroke-width="4" fill-opacity="0.35" opacity="0.85" stroke-opacity="0.75"/>
    <g id="ITEM_1_ICON" transform="translate(682, 198)" data-icon-size="66" stroke-linecap="round" stroke-linejoin="round" data-badge-treatment="clean">
      <g transform="translate(-13.445454545454549,-12.027272727272726) scale(0.17727272727272728)" vector-effect="non-scaling-stroke" fill="#ffffff" fill-opacity="1.0" stroke="none">
        <path fill="#ffffff" d="M267.375 14.688c-17.09 6.94-30.576 17.288-38.75 29.593l-14.813-27.593c-9.017 49.344-12.52 95.085 32 109.563c-10.734 36.94-17.187 73.9-20.687 110.813l-20.563-38.344c-2.848-14.713-9.618-30.698-17.343-47l-17.376 74.124c-7.214-22.468-16.496-44.677-28.47-66.47c24.46-43.217 16.134-70.568-31.093-79.28c-.515 3.04-.56 9.344-.56 9.344l-19.876-8.75L87.5 100.53l-9.344-4.655c-5.433 42.254-.12 74.946 46.625 72.094a342 342 0 0 1 10.314 20.28L29.22 156.312c31.263 45.247 64.173 82.76 112.53 47.094c10.985 26.656 18.485 53.944 23.75 81.72l-64.78-40.188c12.872 36.068 28.203 67.286 66.936 52.437c1.237 7.446 2.306 14.926 3.28 22.438h18.876c-2.757-21.95-6.533-43.82-11.906-65.5c8.208-4.095 14.35-8.853 18.75-14.188c3.693 11.197 11.61 19.643 26.438 23.594c-1.097 18.71-1.506 37.414-1.438 56.092h18.688c-.014-4.07-.003-8.12.03-12.187c41.888-6.813 39.48-42.478 32.407-81.188l-31.967 59.625c.765-23.7 2.492-47.326 5.593-70.906c52.515 5.043 61.144-38.783 65.125-87.78l-61.81 65.843c3.47-20.563 8.06-41.09 14-61.564c37.544 4.596 76.884-35.765 75.28-70l-12.438 7.72c-1.053-11.96-6.674-25.51-17.125-40.69c-7.535 5.354-14.003 12.573-19.843 20.44L285.5 31.03l-11.688 14.595c-.32-10.47-2.17-20.77-6.437-30.938zm182.22 99.25c-4.994.008-10.98.86-18.25 2.906c-13.336 3.754-27.52 12.25-22.376 37.625c-24.488 13.127-45.408 31.122-62.25 53.155h-.19c.03.045.067.08.095.125c-.8 1.05-1.593 2.09-2.375 3.156l23.063-76.344c-45.938 31.743-83.94 65.165-45.438 114.75c-9.69 21.296-16.536 44.94-20.313 70.5h38.032c24.53-7.376 29.6-36.436 32.187-68.25l-48.155 51.282c6.766-30.55 18.424-57.235 34.406-79.47c36.727 42.145 77.18 14.898 118.033-19.81l-104.594 3.28c13.094-14.284 28.35-26.198 45.56-35.5c11.388 14.74 28.402 14.172 40.595 7.812c25.338-13.216 17.442-27.84 38.28-45.906c-20.892 5.264-19.352-19.358-46.31-19.313zM152.936 338.5l26.032 154.594h143.593L348.969 338.5z" vector-effect="non-scaling-stroke" stroke="none"/>
      </g>
    </g>
    <text id="ITEM_1_HEAD" x="725.0" y="288.0" font-weight="700" font-size="26" fill="var(--primary-text)" text-anchor="middle" data-bg-id="ITEM_1_BG" fill-opacity="1.0" stroke="none" style="font-size: 31px; font-family: 'Segoe UI Variable Display', 'Aptos Display', 'Inter', 'Segoe UI', Helvetica, Arial, sans-serif; font-weight: 700; font-kerning: normal; font-feature-settings: &quot;kern&quot; 1, &quot;liga&quot; 1; letter-spacing:-0.4px;" data-final-font-size="31">
      <tspan x="725.0" dy="56.52px">UFO Hypothesis</tspan>
    </text>
    <text id="ITEM_1_BODY" x="725.0" y="382.0" font-size="21" fill="var(--primary-text)" text-anchor="middle" data-bg-id="ITEM_1_BG" style="font-size: 23px; font-family: 'Segoe UI Variable Text', 'Aptos', 'Inter', 'Segoe UI', Helvetica, Arial, sans-serif; font-weight: 400; font-kerning: normal; font-feature-settings: &quot;kern&quot; 1, &quot;liga&quot; 1;" data-final-font-size="23">
      <tspan x="725.0" dy="41.42px">Object caused rapid drying</tspan>
      <tspan x="725.0" dy="26.45px">of flowering amaranths</tspan>
    </text>
    <rect id="ITEM_2_BG" x="975" y="170" width="480" height="410" rx="16" fill="var(--semantic-uncertain)" stroke="var(--accent-2)" stroke-width="2" filter="url(#svg79d3aab7-shadow)" fill-opacity="0.4"/>
    <rect x="975" y="170" width="480" height="410" rx="16" fill="url(#svg79d3aab7-card-panel-sheen)" opacity="0.88"/>
    <rect x="975" y="186" width="460" height="12" fill="var(--accent-2)"/>
    <rect id="ITEM_2_HEAD_FRAME" x="990" y="288" width="450" height="96" fill="none"/>
    <rect id="ITEM_2_BODY_FRAME" x="990" y="382" width="450" height="168" fill="none"/>
    <circle id="ITEM_2_PAD" cx="1205" cy="231" r="55" fill="var(--icon-pad-bg)" stroke="var(--semantic-uncertain)" opacity="1" fill-opacity="0.9" stroke-width="2" stroke-opacity="0.72" data-badge-layer="pad"/>
    <circle cx="1205" cy="231" r="44" fill="none" stroke="var(--accent-2)" stroke-width="3" stroke-dasharray="6 4" display="none" data-suppressed-decoration="redundant-badge-ring"/>
    <circle id="ITEM_2_BADGE" cx="1205" cy="231" r="43" fill="var(--accent-2)" stroke="var(--background)" stroke-width="4" fill-opacity="0.35" opacity="0.85" stroke-opacity="0.75"/>
    <g id="ITEM_2_ICON" transform="translate(1172, 198)" data-icon-size="66" stroke-linecap="round" stroke-linejoin="round" data-badge-treatment="clean">
      <g transform="translate(-16.028571428571425,-16.028571428571425) scale(3.064285714285714)">
        <path d="M21.74 16.08L8.83 3.17C7.27 1.61 4.74 1.61 3.17 3.17C1.61 4.73 1.61 7.26 3.17 8.83L16.08 21.74C15.69 23.92 16.34 26.24 18.02 27.92C20.75 30.65 25.19 30.65 27.92 27.92C30.65 25.19 30.65 20.75 27.92 18.02C26.24 16.34 23.92 15.7 21.74 16.08Z" fill="#F4F4F4"/>
        <path d="M4.59 7.42002C3.81 6.64002 3.81 5.37 4.59 4.59C5.37 3.81 6.63 3.81 7.42 4.59L21.1439 18.3139C21.7096 18.0919 22.3255 17.97 22.97 17.97C25.7314 17.97 27.97 20.2085 27.97 22.97C27.97 25.7314 25.7314 27.97 22.97 27.97C20.2085 27.97 17.97 25.7314 17.97 22.97C17.97 22.3255 18.0919 21.7096 18.3139 21.1439L4.59 7.42002Z" fill="#F8312F"/>
        <path d="M10.23 4.59998L8.11 6.71997C7.72 7.10997 7.72 7.74997 8.11 8.12997C8.5 8.51997 9.13 8.51997 9.52 8.12997L11.64 6.00998L10.23 4.59998ZM12.35 10.97L14.47 8.84998L15.88 10.26L13.76 12.38C13.37 12.77 12.74 12.77 12.35 12.38C11.96 11.99 11.96 11.36 12.35 10.97ZM16.59 15.21L18.71 13.09L20.12 14.5L18 16.62C17.61 17.01 16.98 17.01 16.59 16.62C16.2 16.23 16.2 15.6 16.59 15.21Z" fill="black"/>
        <path d="M24.97 23.97C26.0745 23.97 26.97 23.0745 26.97 21.97C26.97 20.8654 26.0745 19.97 24.97 19.97C23.8654 19.97 22.97 20.8654 22.97 21.97C22.97 23.0745 23.8654 23.97 24.97 23.97Z" fill="#FF8687"/>
      </g>
    </g>
    <text id="ITEM_2_HEAD" x="1215.0" y="288.0" font-weight="700" font-size="26" fill="var(--primary-text)" text-anchor="middle" data-bg-id="ITEM_2_BG" fill-opacity="1.0" stroke="none" style="font-size: 31px; font-family: 'Segoe UI Variable Display', 'Aptos Display', 'Inter', 'Segoe UI', Helvetica, Arial, sans-serif; font-weight: 700; font-kerning: normal; font-feature-settings: &quot;kern&quot; 1, &quot;liga&quot; 1; letter-spacing:-0.4px;" data-final-font-size="31">
      <tspan x="1215.0" dy="56.52px">Weather Hypothesis</tspan>
    </text>
    <text id="ITEM_2_BODY" x="1215.0" y="382.0" font-size="21" fill="var(--primary-text)" text-anchor="middle" data-bg-id="ITEM_2_BG" style="font-size: 23px; font-family: 'Segoe UI Variable Text', 'Aptos', 'Inter', 'Segoe UI', Helvetica, Arial, sans-serif; font-weight: 400; font-kerning: normal; font-feature-settings: &quot;kern&quot; 1, &quot;liga&quot; 1;" data-final-font-size="23">
      <tspan x="1215.0" dy="41.42px">Freezing temperatures and mist caused</tspan>
      <tspan x="1215.0" dy="26.45px">plant dehydration</tspan>
    </text>
    <rect id="ITEM_3_BG" x="485" y="600" width="480" height="410" rx="16" fill="var(--semantic-uncertain)" stroke="var(--accent-3)" stroke-width="2" filter="url(#svg79d3aab7-shadow)" fill-opacity="0.4"/>
    <rect x="485" y="600" width="480" height="410" rx="16" fill="url(#svg79d3aab7-card-panel-sheen)" opacity="0.88"/>
    <rect x="485" y="616" width="460" height="12" fill="var(--accent-3)"/>
    <rect id="ITEM_3_HEAD_FRAME" x="500" y="718" width="450" height="96" fill="none"/>
    <rect id="ITEM_3_BODY_FRAME" x="500" y="812" width="450" height="168" fill="none"/>
    <circle id="ITEM_3_PAD" cx="715" cy="661" r="55" fill="var(--icon-pad-bg)" stroke="var(--semantic-uncertain)" opacity="1" fill-opacity="0.9" stroke-width="2" stroke-opacity="0.72" data-badge-layer="pad"/>
    <circle cx="715" cy="661" r="44" fill="none" stroke="var(--accent-3)" stroke-width="3" stroke-dasharray="6 4" display="none" data-suppressed-decoration="redundant-badge-ring"/>
    <circle id="ITEM_3_BADGE" cx="715" cy="661" r="43" fill="var(--accent-3)" stroke="var(--background)" stroke-width="4" fill-opacity="0.35" opacity="0.85" stroke-opacity="0.75"/>
    <g id="ITEM_3_ICON" transform="translate(682, 628)" data-icon-size="66" stroke-linecap="round" stroke-linejoin="round" data-badge-treatment="clean">
      <g transform="translate(-11.992682926829268,-11.643902439024387) scale(0.697560975609756)">
        <path fill="#82AEC0" d="M54.8 85.4c-.4.5-.5 1.2-.1 1.7c2.3 2.7 9.5 11.3 10.7 13c1.4 1.8 0 3.1-.8 3.9c-27.1 27.4-47 20.6-53.4 19.4c-4.1-.8-6-2.8-6.6-6.7c-1.2-8.3-5.1-27.7 21.3-53c1.4-1.3 2.9-1.2 4-.3c.9.7 9.6 8.8 12.1 11.2c.4.4 1 .3 1.4 0c.9-.9 2.5-2.5 3.2-3.1c3.6-3.1 14.7 7.6 11 11.1z"/>
        <path id="SVGI2NChb5k" d="M54.8 85.4c-.4.5-.5 1.2-.1 1.7c2.3 2.7 9.5 11.3 10.7 13c1.4 1.8 0 3.1-.8 3.9c-27.1 27.4-47 20.6-53.4 19.4c-4.1-.8-6-2.8-6.6-6.7c-1.2-8.3-5.1-27.7 21.3-53c1.4-1.3 2.9-1.2 4-.3c.9.7 9.6 8.8 12.1 11.2c.4.4 1 .3 1.4 0c.9-.9 2.5-2.5 3.2-3.1c3.6-3.1 14.7 7.6 11 11.1z"/>
        <path fill="#2F7889" d="m28.3 61.4l-1.8 3.5c-.3.6-.2 1.4.3 1.9l13.8 13.4c.4.4.4 1 0 1.3l-2.4 2.3c-.4.4-1 .4-1.4 0L22.9 70.1c-1-1-1.2-2.6-.3-3.8l4.1-5.8zm30.1 20.5c-1.6 1.6-4.5 1.9-6.6.2c-.3-.3-.8-.2-1.1 0c-4.2 3.9-21.2 19.5-21.7 20c-.6.6-.1 1.3.6.8c9.8-7.3 17.5-8.4 18.8-6.9c2 2.2 7.3 8.3 9.1 10.3c.3.3.3.8 0 1.1c-6.4 6.2-17.5 14.8-33.8 17.6c-1.4.2-1 1.3-.3 1.3h18.4l28.4-26.1l-7 2.7c-.7.3-1.4.1-1.9-.4c-2.6-2.8-10.7-11.7-12.9-14c-.3-.3-.3-.7 0-1c.8-.8 2.1-1.1 8.5-1.4c1.7-.1 1.5-4.2 1.5-4.2" clip-path="url(#SVG9XC5db0L)"/>
        <path fill="#A06841" d="M84.6 34.9S49.8 70.3 48.5 71.7c-2.6 2.8 6 11.6 8.9 8.9c2-1.8 37.4-35.8 37.4-35.8z"/>
        <path id="SVGaKhYkewG" d="M84.6 34.9S49.8 70.3 48.5 71.7c-2.6 2.8 6 11.6 8.9 8.9c2-1.8 37.4-35.8 37.4-35.8z"/>
        <path fill="#7D5133" d="M86.5 56.3c-4.5-4.2-6.3-14.2-1.8-21.1l11.1 11z" clip-path="url(#SVG8G6Dkc4j)"/>
        <path fill="#82AEC0" d="m87.8 30.4l-4.4 4.4c-3 3.1 8.2 14.3 11.3 11.3c1-1 3.1-3 4-3.9c4.7 4.2 10.2 3 13.3 1.5c4.8-2.3 14.8-10.7 13.1-13.2c-.4-.6-1.3-1.6-1.3-1.6s-.8-.8-1.8.1c0 0-8.7 7.9-10.2 9c-2.2 1.6-5.3 1.9-8.1 0c-2.6-1.7-9.3-9.2-11.4-12.2c-1.7-2.5-2.8-5-.9-7.7c1.5-2 9.9-10.2 10.5-11c.9-1 .8-2 .2-2.6c-.4-.5-.9-.9-1.5-1.3c-1.7-1.5-11 6.7-15.1 14.3c-2.8 5 .3 10.2 2.3 12.9"/>
        <path id="SVGJA0CObfb" d="m87.8 30.4l-4.4 4.4c-3 3.1 8.2 14.3 11.3 11.3c1-1 3.1-3 4-3.9c4.7 4.2 10.2 3 13.3 1.5c4.8-2.3 14.8-10.7 13.1-13.2c-.4-.6-1.3-1.6-1.3-1.6s-.8-.8-1.8.1c0 0-8.7 7.9-10.2 9c-2.2 1.6-5.3 1.9-8.1 0c-2.6-1.7-9.3-9.2-11.4-12.2c-1.7-2.5-2.8-5-.9-7.7c1.5-2 9.9-10.2 10.5-11c.9-1 .8-2 .2-2.6c-.4-.5-.9-.9-1.5-1.3c-1.7-1.5-11 6.7-15.1 14.3c-2.8 5 .3 10.2 2.3 12.9"/>
        <path fill="#2F7889" d="m86.9 46.1l6.9-6.5c.5-.5 1.2-.5 1.7 0l3.3 2.7l.7 2.6l-6.7 6.6zm16.5-41.4c-3.5-2.2-13.1 9.7-14.7 12.4c-1.3 2.2-1.4 5.6.3 8.9c2.2 4.2 8.1 11.1 13.2 14.2c3 1.8 6.5 1.7 9 .4c3.2-1.6 13.4-9.9 12.2-12.7s-20-23.2-20-23.2" clip-path="url(#SVGqcOkKgqn)"/>
        <path fill="#A06841" d="M100.9 6.4c7 3.7 17.9 16.7 21.2 22.8c.2.4.2.8 0 1.1c-1.4 2.4-4.1 4.7-7 6.5c-.5.3-1.1.3-1.6-.1c-6.1-4.2-16-14.4-20.4-22.3c-.3-.5-.2-1.1 0-1.5c1.5-2.8 4.2-5.4 6.6-6.5c.4-.2.9-.1 1.2 0"/>
        <path id="SVGJVB7OeoP" d="M100.9 6.4c7 3.7 17.9 16.7 21.2 22.8c.2.4.2.8 0 1.1c-1.4 2.4-4.1 4.7-7 6.5c-.5.3-1.1.3-1.6-.1c-6.1-4.2-16-14.4-20.4-22.3c-.3-.5-.2-1.1 0-1.5c1.5-2.8 4.2-5.4 6.6-6.5c.4-.2.9-.1 1.2 0"/>
        <path fill="#7D5133" d="M104.5 7.2c-2.5.4-9.3 5.1-8.6 12.6c-4.4-2.2-7.2-6.3-7.2-6.3L99.9 2.6z" clip-path="url(#SVGIVfm6ceT)"/>
      </g>
    </g>
    <text id="ITEM_3_HEAD" x="725.0" y="718.0" font-weight="700" font-size="26" fill="var(--primary-text)" text-anchor="middle" data-bg-id="ITEM_3_BG" fill-opacity="1.0" stroke="none" style="font-size: 31px; font-family: 'Segoe UI Variable Display', 'Aptos Display', 'Inter', 'Segoe UI', Helvetica, Arial, sans-serif; font-weight: 700; font-kerning: normal; font-feature-settings: &quot;kern&quot; 1, &quot;liga&quot; 1; letter-spacing:-0.4px;" data-final-font-size="31">
      <tspan x="725.0" dy="56.52px">Biological Factors</tspan>
    </text>
    <text id="ITEM_3_BODY" x="725.0" y="812.0" font-size="21" fill="var(--primary-text)" text-anchor="middle" data-bg-id="ITEM_3_BG" style="font-size: 23px; font-family: 'Segoe UI Variable Text', 'Aptos', 'Inter', 'Segoe UI', Helvetica, Arial, sans-serif; font-weight: 400; font-kerning: normal; font-feature-settings: &quot;kern&quot; 1, &quot;liga&quot; 1;" data-final-font-size="23">
      <tspan x="725.0" dy="41.42px">Seed maturity and soil composition</tspan>
      <tspan x="725.0" dy="26.45px">influenced wilting</tspan>
    </text>
    <rect id="ITEM_4_BG" x="975" y="600" width="480" height="410" rx="16" fill="var(--semantic-uncertain)" stroke="var(--accent-4)" stroke-width="2" filter="url(#svg79d3aab7-shadow)" fill-opacity="0.4"/>
    <rect x="975" y="600" width="480" height="410" rx="16" fill="url(#svg79d3aab7-card-panel-sheen)" opacity="0.88"/>
    <rect x="975" y="616" width="460" height="12" fill="var(--accent-4)"/>
    <rect id="ITEM_4_HEAD_FRAME" x="990" y="718" width="450" height="96" fill="none"/>
    <rect id="ITEM_4_BODY_FRAME" x="990" y="812" width="450" height="168" fill="none"/>
    <circle id="ITEM_4_PAD" cx="1205" cy="661" r="55" fill="var(--icon-pad-bg)" stroke="var(--semantic-uncertain)" opacity="1" fill-opacity="0.9" stroke-width="2" stroke-opacity="0.72" data-badge-layer="pad"/>
    <circle cx="1205" cy="661" r="44" fill="none" stroke="var(--accent-4)" stroke-width="3" stroke-dasharray="6 4" display="none" data-suppressed-decoration="redundant-badge-ring"/>
    <circle id="ITEM_4_BADGE" cx="1205" cy="661" r="43" fill="var(--accent-4)" stroke="var(--background)" stroke-width="4" fill-opacity="0.35" opacity="0.85" stroke-opacity="0.75"/>
    <g id="ITEM_4_ICON" transform="translate(1172, 628)" data-icon-size="66" stroke-linecap="round" stroke-linejoin="round" data-badge-treatment="clean">
      <g transform="translate(-9.899999999999999,-9.899999999999999) scale(6.128571428571428)" vector-effect="non-scaling-stroke" stroke-width="2.50" stroke-linecap="round" stroke-linejoin="round" stroke-opacity="1.0">
        <path id="Vector" fill="none" d="M6 11.5a5.5 5.5 0 1 0 0 -11 5.5 5.5 0 0 0 0 11Z" vector-effect="non-scaling-stroke" stroke="#ffffff"/>
        <path id="Vector_2" stroke="#ffffff" d="M6 11.5a5.5 5.5 0 1 0 0 -11 5.5 5.5 0 0 0 0 11Z" vector-effect="non-scaling-stroke" fill="none"/>
        <path id="Vector_3" stroke="#ffffff" d="M13.5 13.5 10 10" vector-effect="non-scaling-stroke" fill="none"/>
      </g>
    </g>
    <text id="ITEM_4_HEAD" x="1215.0" y="718.0" font-weight="700" font-size="26" fill="var(--primary-text)" text-anchor="middle" data-bg-id="ITEM_4_BG" fill-opacity="1.0" stroke="none" style="font-size: 31px; font-family: 'Segoe UI Variable Display', 'Aptos Display', 'Inter', 'Segoe UI', Helvetica, Arial, sans-serif; font-weight: 700; font-kerning: normal; font-feature-settings: &quot;kern&quot; 1, &quot;liga&quot; 1; letter-spacing:-0.4px;" data-final-font-size="31">
      <tspan x="1215.0" dy="56.52px">Perceptual Episode</tspan>
    </text>
    <text id="ITEM_4_BODY" x="1215.0" y="812.0" font-size="21" fill="var(--primary-text)" text-anchor="middle" data-bg-id="ITEM_4_BG" style="font-size: 23px; font-family: 'Segoe UI Variable Text', 'Aptos', 'Inter', 'Segoe UI', Helvetica, Arial, sans-serif; font-weight: 400; font-kerning: normal; font-feature-settings: &quot;kern&quot; 1, &quot;liga&quot; 1;" data-final-font-size="23">
      <tspan x="1215.0" dy="41.42px">Visual illusion or hallucinatory</tspan>
      <tspan x="1215.0" dy="26.45px">experience occurred</tspan>
    </text>
  </g>
  <text id="SOURCE_NOTE" x="134.0" y="1058.0" fill="var(--muted-text)" opacity="0.88" style="font-family: var(--font-family); font-size: 20px;">Source: Introduction</text>
  <text id="EDITORIAL_NOTE" x="1786.0" y="1058.0" fill="var(--semantic-uncertain)" opacity="0.92" style="font-family: var(--font-family); font-size: 20px;" text-anchor="end">Interpretations remain disputed; wording reflects source uncertainty.</text>
</svg>
