<?xml version='1.0' encoding='utf-8'?>
<svg xmlns="http://www.w3.org/2000/svg" width="1920" height="1080" viewBox="0 0 1920 1080" data-theme="light" data-semantic-intent="sequence" data-relation-type="sequence" data-site-visual-identity="signal-cobalt">
  <style>
        @font-face {
            font-family: 'Inter';
            src: url('assets/fonts/Inter-Regular.ttf') format('truetype');
            font-weight: 400;
            font-style: normal;
            font-display: swap;
        }
        @font-face {
            font-family: 'Inter';
            src: url('assets/fonts/Inter-Bold.ttf') format('truetype');
            font-weight: 600;
            font-style: normal;
            font-display: swap;
        }
        @font-face {
            font-family: 'Inter';
            src: url('assets/fonts/Inter-Bold.ttf') format('truetype');
            font-weight: 800;
            font-style: normal;
            font-display: swap;
        }
        
:root {
    --background: #f8fafc;
    --panel: #ffffff;
    --primary-text: #0f172a;
    --muted-text: #64748b;
    --inverse-text: #ffffff;
    --border: #e2e8f0;
    --shadow-color: #000000;
    --icon-pad-bg: #1e293b;
    --art-glow: #0891b2;
    --art-glow-opacity: 0.10;
    --art-sheen: #ffffff;
    --art-sheen-opacity: 0.34;
    --art-shadow: #0f172a;
    --art-shadow-opacity: 0.14;
    --art-muted-line: #94a3b8;
    --art-panel-tint: #f1f5f9;
    --semantic-risk: #b91c1c;
    --semantic-warning: #c2410c;
    --semantic-uncertain: #a16207;
    --semantic-evidence: #1d4ed8;
    --semantic-claim: #6d28d9;
    --semantic-positive: #15803d;
    --semantic-outcome: #0e7490;
    --font-family: 'Inter', 'Segoe UI', 'Kalam', Roboto, Helvetica, Arial, sans-serif;
    --radius-xl: 16px;
    --font-family-headline: 'Segoe UI Variable Display', 'Aptos Display', 'Inter', 'Segoe UI', Helvetica, Arial, sans-serif;
    --font-family-body: 'Segoe UI Variable Text', 'Aptos', 'Inter', 'Segoe UI', Helvetica, Arial, sans-serif;
    --font-heading: var(--font-family-headline);
    --font-body: var(--font-family-body);
    --font-size-h1: 64px;
    --font-size-h2: 42px;
    --font-size-h3: 29px;
    --font-size-body: 21px;
    --font-size-caption: 17px;
    --secondary-text: var(--muted-text);
    --panel-border: var(--border);
    --font-weight-normal: 400;
    --font-weight-medium: 500;
    --font-weight-semibold: 600;
    --font-weight-bold: 700;
    --spacing-gutter-pct: 0.07;
    --spacing-top-pct: 0.15;
    --spacing-bottom-pct: 0.07;
    --spacing-title-y-pct: 0.055;
    --accent-1: #1d4ed8;
    --accent-2: #2563eb;
    --accent-3: #4f46e5;
    --accent-4: #6d28d9;
    --accent-5: #0369a1;
    --accent-6: #c2410c;
}
:root[data-theme="dark"] {
    --background: #0f172a;
    --panel: #1e293b;
    --primary-text: #f1f5f9;
    --muted-text: #94a3b8;
    --inverse-text: #0f172a;
    --border: #334155;
    --shadow-color: #000000;
    --icon-pad-bg: #1e293b;
    --art-glow: #7dd3fc;
    --art-glow-opacity: 0.18;
    --art-sheen: #ffffff;
    --art-sheen-opacity: 0.18;
    --art-shadow: #000000;
    --art-shadow-opacity: 0.28;
    --art-muted-line: #64748b;
    --art-panel-tint: #1e293b;
    --semantic-risk: #f87171;
    --semantic-warning: #fb923c;
    --semantic-uncertain: #fbbf24;
    --semantic-evidence: #60a5fa;
    --semantic-claim: #c084fc;
    --semantic-positive: #4ade80;
    --semantic-outcome: #22d3ee;
    --accent-1: #93c5fd;
    --accent-2: #60a5fa;
    --accent-3: #818cf8;
    --accent-4: #a78bfa;
    --accent-5: #38bdf8;
    --accent-6: #fb923c;
}
:root[data-theme="light"] {
    --background: #f8fafc;
    --panel: #ffffff;
    --primary-text: #0f172a;
    --muted-text: #64748b;
    --inverse-text: #ffffff;
    --border: #e2e8f0;
    --shadow-color: #000000;
    --icon-pad-bg: #1e293b;
    --art-glow: #0891b2;
    --art-glow-opacity: 0.10;
    --art-sheen: #ffffff;
    --art-sheen-opacity: 0.34;
    --art-shadow: #0f172a;
    --art-shadow-opacity: 0.14;
    --art-muted-line: #94a3b8;
    --art-panel-tint: #f1f5f9;
    --semantic-risk: #b91c1c;
    --semantic-warning: #c2410c;
    --semantic-uncertain: #a16207;
    --semantic-evidence: #1d4ed8;
    --semantic-claim: #6d28d9;
    --semantic-positive: #15803d;
    --semantic-outcome: #0e7490;
    --accent-1: #1d4ed8;
    --accent-2: #2563eb;
    --accent-3: #4f46e5;
    --accent-4: #6d28d9;
    --accent-5: #0369a1;
    --accent-6: #c2410c;
}</style>
  <rect x="0" y="0" width="1.92E+3" height="1.08E+3" fill="#252a34" stroke="none" id="programmatic_background"/>
  <line id="HEADER_DECOR" x1="960.0" x2="1080.0" y1="135.0" y2="135.0" stroke="var(--accent-1)" stroke-width="6" stroke-linecap="round"/>
  <defs>
    <pattern id="svge1df00db-napkin-hatch" patternUnits="userSpaceOnUse" width="12" height="12">
      <path d="M -3 12 L 12 -3 M 0 15 L 15 0" fill="none" stroke="var(--primary-text)" stroke-width="1" stroke-opacity="0.05"/>
    </pattern>
    <radialGradient id="svge1df00db-universal-edge-vignette" cx="50%" cy="50%" r="72%">
      <stop offset="0%" stop-color="var(--background)" stop-opacity="0"/>
      <stop offset="72%" stop-color="var(--background)" stop-opacity="0.12"/>
      <stop offset="100%" stop-color="var(--primary-text)" stop-opacity="0.08"/>
    </radialGradient>
    <linearGradient id="svge1df00db-universal-surface-sheen" x1="0%" y1="0%" x2="100%" y2="100%">
      <stop offset="0%" stop-color="var(--art-sheen)" stop-opacity="var(--art-sheen-opacity)"/>
      <stop offset="46%" stop-color="var(--art-sheen)" stop-opacity="0.035"/>
      <stop offset="100%" stop-color="var(--art-panel-tint)" stop-opacity="0.14"/>
    </linearGradient>
    <radialGradient id="svge1df00db-universal-icon-aura" cx="50%" cy="42%" r="64%">
      <stop offset="0%" stop-color="var(--art-glow)" stop-opacity="var(--art-glow-opacity)"/>
      <stop offset="100%" stop-color="var(--background)" stop-opacity="0"/>
    </radialGradient>
    <linearGradient id="svge1df00db-timeline-snake-route-glow" x1="0%" y1="0%" x2="100%" y2="100%">
      <stop offset="0%" stop-color="var(--art-glow)" stop-opacity="0"/>
      <stop offset="48%" stop-color="var(--art-glow)" stop-opacity="var(--art-glow-opacity)"/>
      <stop offset="100%" stop-color="var(--art-glow)" stop-opacity="0"/>
    </linearGradient>
    <linearGradient id="svge1df00db-timeline-snake-card-sheen" x1="0%" y1="0%" x2="100%" y2="100%">
      <stop offset="0%" stop-color="var(--art-sheen)" stop-opacity="var(--art-sheen-opacity)"/>
      <stop offset="100%" stop-color="var(--art-panel-tint)" stop-opacity="0.12"/>
    </linearGradient>
    <filter id="svge1df00db-text-glow" x="-20%" y="-20%" width="140%" height="140%">
      <feDropShadow dx="0" dy="0" stdDeviation="2" flood-color="#000000" flood-opacity="0.4"/>
    </filter>
    <filter id="svge1df00db-shadow" x="-30%" y="-30%" width="160%" height="160%">
      <feDropShadow dx="0" dy="2" stdDeviation="3" flood-color="#000000" flood-opacity="0.08"/>
      <feDropShadow dx="0" dy="6" stdDeviation="10" flood-color="#000000" flood-opacity="0.12"/>
    </filter>
    <marker id="svge1df00db-arrowhead" markerWidth="10" markerHeight="7" refX="9" refY="3.5" orient="auto" markerUnits="strokeWidth">
      <polygon points="0 0, 10 3.5, 0 7" fill="var(--muted-text)" opacity="0.6"/>
    </marker>
    <marker id="svge1df00db-PHX_SEQUENCE_DIRECTION_ARROW" markerWidth="18" markerHeight="18" refX="16" refY="9" orient="auto" markerUnits="userSpaceOnUse">
      <path d="M 0 0 L 18 9 L 0 18 Z" fill="var(--muted-text)" opacity="0.9"/>
    </marker>
  </defs>
  <rect width="100%" height="100%" fill="var(--background)" id="CANVAS_BG"/>
  <rect width="100%" height="100%" fill="url(#svge1df00db-napkin-hatch)"/>
  <rect id="UNIVERSAL_EDGE_VIGNETTE" width="100%" height="100%" fill="url(#svge1df00db-universal-edge-vignette)" opacity="0.62"/>
  <text id="TITLE" x="960.0" y="59" font-size="63" font-weight="700" fill="#0f172a" style="font-size: 69px; font-family: 'Segoe UI Variable Display', 'Aptos Display', 'Inter', 'Segoe UI', Helvetica, Arial, sans-serif; font-weight: 800; font-kerning: normal; font-feature-settings: &quot;kern&quot; 1, &quot;liga&quot; 1; letter-spacing:-1.2px;" text-anchor="middle" data-final-font-size="69">
    <tspan x="960.0" dy="70.47px">Savoie Landmark Aerospace Records</tspan>
  </text>
  <rect id="TITLE_FRAME" x="134" y="59" width="1652" height="103" fill="none"/>
  <g id="DIAGRAM_SCALER" transform="translate(50.3, 31.5) scale(0.95)">
    <path d="M 300 360 L 1620 360 C 1770 360 1770 780 1620 780 L 630 780" fill="none" stroke="var(--muted-text)" stroke-width="5" stroke-linecap="round" stroke-opacity="0.26" marker-end="url(#svge1df00db-PHX_SEQUENCE_DIRECTION_ARROW)" data-direction-cue="forward"/>
    <g transform="translate(300.0, 360.0)">
      <circle id="ITEM_1_BG" r="50" fill="var(--accent-1)" stroke="var(--accent-1)" stroke-width="2" fill-opacity="1.0"/>
      <rect id="ITEM_1_TEXT_BG" x="-208.0" y="89.0" width="416.0" height="202.0" rx="22" fill="var(--panel)" fill-opacity="0.94" stroke="var(--primary-text)" stroke-opacity="0.12" stroke-width="1.5"/>
      <rect id="TIMELINE_SNAKE_ART_CARD_SHEEN_1" x="-208.0" y="89.0" width="416.0" height="202.0" rx="16" fill="url(#svge1df00db-timeline-snake-card-sheen)" opacity="0.78" stroke="var(--accent-1)" stroke-opacity="1.0"/>
      <text id="ITEM_1_HEAD" text-anchor="middle" font-weight="bold" font-size="27" fill="var(--accent-1)" x="0.0" y="105.0" data-bg-id="ITEM_1_TEXT_BG" fill-opacity="1.0" style="font-size: 31px; font-family: 'Segoe UI Variable Display', 'Aptos Display', 'Inter', 'Segoe UI', Helvetica, Arial, sans-serif; font-weight: 700; font-kerning: normal; font-feature-settings: &quot;kern&quot; 1, &quot;liga&quot; 1; letter-spacing:-0.4px;" data-final-font-size="31">
        <tspan x="0.0" dy="31.02px">Modane Wave</tspan>
      </text>
      <rect id="ITEM_1_HEAD_FRAME" x="-190" y="105" width="380" height="45" fill="none"/>
      <text id="ITEM_1_BODY" text-anchor="middle" font-size="19.5" fill="var(--primary-text)" x="0.0" y="155.0" data-bg-id="ITEM_1_TEXT_BG" style="font-size: 23px; font-family: 'Segoe UI Variable Text', 'Aptos', 'Inter', 'Segoe UI', Helvetica, Arial, sans-serif; font-weight: 400; font-kerning: normal; font-feature-settings: &quot;kern&quot; 1, &quot;liga&quot; 1;" opacity="0.9" data-final-font-size="23">
        <tspan x="0.0" dy="31.82px">Nocturnal lights reported</tspan>
        <tspan x="0.0" dy="26.45px">but evidence remains weak</tspan>
      </text>
      <rect id="ITEM_1_BODY_FRAME" x="-190" y="155.0" width="380" height="120" fill="none"/>
      <circle id="TIMELINE_SNAKE_ART_MILESTONE_AURA_1" cx="0" cy="0" r="58" fill="url(#svge1df00db-universal-icon-aura)" opacity="0.82" stroke="var(--accent-1)" stroke-opacity="1.0" display="none" data-suppressed-decoration="redundant-badge-ring"/>
      <circle id="ITEM_1_PAD" cx="0" cy="0" r="39" fill="var(--icon-pad-bg)" stroke="var(--accent-1)" opacity="1" fill-opacity="0.9" stroke-width="2" stroke-opacity="0.72" data-badge-layer="pad"/>
      <circle id="ITEM_1_PAD_INNER" cx="0" cy="0" r="30.42" fill="var(--accent-1)" fill-opacity="0.12" stroke="none" data-badge-layer="tint"/>
      <circle cx="0" cy="0" r="31.2" fill="none" stroke="var(--accent-1)" stroke-width="3" stroke-dasharray="6 4" display="none" data-suppressed-decoration="redundant-badge-ring"/>
      <g id="ITEM_1_ICON" transform="translate(-30.0, -30.0)" data-icon-size="60" stroke-linecap="round" stroke-linejoin="round" data-badge-treatment="clean">
        <g transform="translate(-6.0533333333333355,-6.053333333333336) scale(3.0044444444444447)" vector-effect="non-scaling-stroke" fill="#f1f5f9" fill-opacity="1.0" stroke="none">
          <path fill="#f1f5f9" d="M15 3h2l5 2l-5 2v3.17L22 21H2l6-8l3.5 4.7l3.5-7.53z" vector-effect="non-scaling-stroke" stroke="none"/>
        </g>
      </g>
    </g>
    <g transform="translate(960.0, 360.0)">
      <circle id="ITEM_2_BG" r="50" fill="var(--accent-2)" stroke="var(--accent-2)" stroke-width="2" fill-opacity="1.0"/>
      <rect id="ITEM_2_TEXT_BG" x="-208.0" y="89.0" width="416.0" height="202.0" rx="22" fill="var(--panel)" fill-opacity="0.94" stroke="var(--primary-text)" stroke-opacity="0.12" stroke-width="1.5"/>
      <rect id="TIMELINE_SNAKE_ART_CARD_SHEEN_2" x="-208.0" y="89.0" width="416.0" height="202.0" rx="16" fill="url(#svge1df00db-timeline-snake-card-sheen)" opacity="0.78" stroke="var(--accent-2)" stroke-opacity="1.0"/>
      <text id="ITEM_2_HEAD" text-anchor="middle" font-weight="bold" font-size="27" fill="var(--accent-2)" x="0.0" y="105.0" data-bg-id="ITEM_2_TEXT_BG" fill-opacity="1.0" style="font-size: 31px; font-family: 'Segoe UI Variable Display', 'Aptos Display', 'Inter', 'Segoe UI', Helvetica, Arial, sans-serif; font-weight: 700; font-kerning: normal; font-feature-settings: &quot;kern&quot; 1, &quot;liga&quot; 1; letter-spacing:-0.4px;" data-final-font-size="31">
        <tspan x="0.0" dy="31.02px">National Flap</tspan>
      </text>
      <rect id="ITEM_2_HEAD_FRAME" x="-190" y="105" width="380" height="45" fill="none"/>
      <text id="ITEM_2_BODY" text-anchor="middle" font-size="19.5" fill="var(--primary-text)" x="0.0" y="155.0" data-bg-id="ITEM_2_TEXT_BG" style="font-size: 23px; font-family: 'Segoe UI Variable Text', 'Aptos', 'Inter', 'Segoe UI', Helvetica, Arial, sans-serif; font-weight: 400; font-kerning: normal; font-feature-settings: &quot;kern&quot; 1, &quot;liga&quot; 1;" opacity="0.9" data-final-font-size="23">
        <tspan x="0.0" dy="31.82px">Soviet Proton rocket debris re-</tspan>
        <tspan x="0.0" dy="26.45px">entered the atmosphere</tspan>
      </text>
      <rect id="ITEM_2_BODY_FRAME" x="-190" y="155.0" width="380" height="120" fill="none"/>
      <circle id="TIMELINE_SNAKE_ART_MILESTONE_AURA_2" cx="0" cy="0" r="58" fill="url(#svge1df00db-universal-icon-aura)" opacity="0.82" stroke="var(--accent-2)" stroke-opacity="1.0" display="none" data-suppressed-decoration="redundant-badge-ring"/>
      <circle id="ITEM_2_PAD" cx="0" cy="0" r="39" fill="var(--icon-pad-bg)" stroke="var(--accent-2)" opacity="1" fill-opacity="0.9" stroke-width="2" stroke-opacity="0.72" data-badge-layer="pad"/>
      <circle id="ITEM_2_PAD_INNER" cx="0" cy="0" r="30.42" fill="var(--accent-2)" fill-opacity="0.12" stroke="none" data-badge-layer="tint"/>
      <circle cx="0" cy="0" r="31.2" fill="none" stroke="var(--accent-2)" stroke-width="3" stroke-dasharray="6 4" display="none" data-suppressed-decoration="redundant-badge-ring"/>
      <g id="ITEM_2_ICON" transform="translate(-30.0, -30.0)" data-icon-size="60" stroke-linecap="round" stroke-linejoin="round" data-badge-treatment="clean">
        <g transform="translate(-4.727256637168144,-6.6116814159292066) scale(2.153628318584071)">
          <path d="M20 9L22 6H27V9H30V15L22 16L14 15L15.5646 9.43999C15.6335 9.17999 15.8696 9 16.1353 9H20Z" fill="#CDC4D6"/>
          <path d="M22 16H30V23L17 26L4 23L2.03838 17.2837C1.85708 16.6418 2.34056 16 3.01543 16H22Z" fill="#CDC4D6"/>
          <path d="M24.66 12.99H25.33C25.7 12.99 25.99 12.69 25.99 12.33V11.66C25.99 11.29 25.69 11 25.33 11H24.66C24.29 11 24 11.3 24 11.66V12.33C24 12.7 24.29 12.99 24.66 12.99Z" fill="#26EAFC"/>
          <path d="M4 23L5.801 29.2731C5.9204 29.7013 6.31841 30 6.76617 30H28.995C29.5522 30 30 29.5519 30 29.0043V23H4Z" fill="#CA0B4A"/>
          <path d="M21 11C21.54 11 22 11 22 12C22 12.9821 21.5563 12.99 21.0289 12.9995L21 13H14.5665L15.1242 11H21Z" fill="#00A6ED"/>
          <path d="M15.3362 21H14.6638C14.3017 21 14 20.6983 14 20.3362V19.6638C14 19.3017 14.2931 19 14.6638 19H15.3362C15.6983 19 16 19.2931 16 19.6638V20.3362C16 20.6983 15.7069 21 15.3362 21Z" fill="#00A6ED"/>
          <path d="M18.6638 21H19.3362C19.7069 21 20 20.6983 20 20.3362V19.6638C20 19.2931 19.6983 19 19.3362 19H18.6638C18.2931 19 18 19.3017 18 19.6638V20.3362C18 20.6983 18.2931 21 18.6638 21Z" fill="#00A6ED"/>
          <path d="M23.3362 21H22.6638C22.2931 21 22 20.6983 22 20.3362V19.6638C22 19.3017 22.2931 19 22.6638 19H23.3362C23.6983 19 24 19.2931 24 19.6638V20.3362C24 20.6983 23.7069 21 23.3362 21Z" fill="#00A6ED"/>
          <path d="M26.6638 21H27.3362C27.7069 21 28 20.6983 28 20.3362V19.6638C28 19.2931 27.6983 19 27.3362 19H26.6638C26.2931 19 26 19.3017 26 19.6638V20.3362C26 20.6983 26.2931 21 26.6638 21Z" fill="#00A6ED"/>
          <path d="M25.33 12.99H24.66C24.29 12.99 24 12.7 24 12.33V11.66C24 11.3 24.29 11 24.66 11H25.33C25.69 11 25.99 11.29 25.99 11.66V12.33C25.99 12.69 25.7 12.99 25.33 12.99Z" fill="#00A6ED"/>
          <path d="M30.01 27.6699C28.26 27.6699 28.26 28.7899 26.5 28.7899C24.75 28.7899 24.75 27.6699 22.99 27.6699C21.24 27.6699 21.24 28.7899 19.49 28.7899C17.74 28.7899 17.74 27.6699 15.99 27.6699C14.24 27.6699 14.24 28.7899 12.49 28.7899C10.74 28.7899 10.74 27.6699 8.99 27.6699C7.24 27.6699 7.24 28.7899 5.5 28.7899C3.75 28.7899 3.75 27.6699 2 27.6699V29.9899H30L30.01 27.6699Z" fill="#00A6ED"/>
          <path d="M26.5962 4C26.8077 4 26.9904 4.18091 26.9904 4.41206H27V6H22L22.6635 4.84422C22.9615 4.3216 23.5096 4 24.0962 4H26.5962Z" fill="#533566"/>
          <path d="M5 16H30V15H5.58C5.26 15 5 15.2626 5 15.5859V16Z" fill="#533566"/>
        </g>
      </g>
    </g>
    <g transform="translate(1620.0, 360.0)">
      <circle id="ITEM_3_BG" r="50" fill="var(--accent-3)" stroke="var(--accent-3)" stroke-width="2" fill-opacity="1.0"/>
      <rect id="ITEM_3_TEXT_BG" x="-208.0" y="89.0" width="416.0" height="202.0" rx="22" fill="var(--panel)" fill-opacity="0.94" stroke="var(--primary-text)" stroke-opacity="0.12" stroke-width="1.5"/>
      <rect id="TIMELINE_SNAKE_ART_CARD_SHEEN_3" x="-208.0" y="89.0" width="416.0" height="202.0" rx="16" fill="url(#svge1df00db-timeline-snake-card-sheen)" opacity="0.78" stroke="var(--accent-3)" stroke-opacity="1.0"/>
      <text id="ITEM_3_HEAD" text-anchor="middle" font-weight="bold" font-size="27" fill="var(--accent-3)" x="0.0" y="105.0" data-bg-id="ITEM_3_TEXT_BG" fill-opacity="1.0" style="font-size: 31px; font-family: 'Segoe UI Variable Display', 'Aptos Display', 'Inter', 'Segoe UI', Helvetica, Arial, sans-serif; font-weight: 700; font-kerning: normal; font-feature-settings: &quot;kern&quot; 1, &quot;liga&quot; 1; letter-spacing:-0.4px;" data-final-font-size="31">
        <tspan x="0.0" dy="31.02px">Chambéry Flare</tspan>
      </text>
      <rect id="ITEM_3_HEAD_FRAME" x="-190" y="105" width="380" height="45" fill="none"/>
      <text id="ITEM_3_BODY" text-anchor="middle" font-size="19.5" fill="var(--primary-text)" x="0.0" y="155.0" data-bg-id="ITEM_3_TEXT_BG" style="font-size: 23px; font-family: 'Segoe UI Variable Text', 'Aptos', 'Inter', 'Segoe UI', Helvetica, Arial, sans-serif; font-weight: 400; font-kerning: normal; font-feature-settings: &quot;kern&quot; 1, &quot;liga&quot; 1;" opacity="0.9" data-final-font-size="23">
        <tspan x="0.0" dy="31.82px">Official archive identifies</tspan>
        <tspan x="0.0" dy="26.45px">a distress flare event</tspan>
      </text>
      <rect id="ITEM_3_BODY_FRAME" x="-190" y="155.0" width="380" height="120" fill="none"/>
      <circle id="TIMELINE_SNAKE_ART_MILESTONE_AURA_3" cx="0" cy="0" r="58" fill="url(#svge1df00db-universal-icon-aura)" opacity="0.82" stroke="var(--accent-3)" stroke-opacity="1.0" display="none" data-suppressed-decoration="redundant-badge-ring"/>
      <circle id="ITEM_3_PAD" cx="0" cy="0" r="39" fill="var(--icon-pad-bg)" stroke="var(--accent-3)" opacity="1" fill-opacity="0.9" stroke-width="2" stroke-opacity="0.72" data-badge-layer="pad"/>
      <circle id="ITEM_3_PAD_INNER" cx="0" cy="0" r="30.42" fill="var(--accent-3)" fill-opacity="0.12" stroke="none" data-badge-layer="tint"/>
      <circle cx="0" cy="0" r="31.2" fill="none" stroke="var(--accent-3)" stroke-width="3" stroke-dasharray="6 4" display="none" data-suppressed-decoration="redundant-badge-ring"/>
      <g id="ITEM_3_ICON" transform="translate(-30.0, -30.0)" data-icon-size="60" stroke-linecap="round" stroke-linejoin="round" data-badge-treatment="clean">
        <g transform="translate(-2.209411764705881,-3.4875630252100858) scale(0.12781512605042017)" vector-effect="non-scaling-stroke" fill="#f1f5f9" fill-opacity="1.0" stroke="none">
          <path fill="#f1f5f9" d="M487.375 26.906L356.5 56.47c-23.13 58.833 39.11 126.32 101.313 101.5zm-143.5 99.125L237.78 232.5c-3.703 22.683 2.47 38.328 16.94 46.47l10.718 6.03l-8.688 8.72L57.625 492.686H83.78l314.19-317.28c-23.152-9.146-42.645-27.243-54.095-49.376zM218.75 233.126l-113.53 18.72l97.436 5.968l-121.97 51.156l105.158-9.47l-67.313 61.688l62.564-18.282l54.844-54.812c-13.938-12.937-19.78-32.964-17.188-54.97zM16.844 245.063v32.312l84.937-15.563zm263.75 75.437l-42.688 43.063l-.875 67.75L280.595 320.5zm-161.97 2.625L16.845 341.5v44.094l101.78-62.47zm8.157 61.25l-110.124 47.22v65.124H27.22l1.28-1.283l41.03-41.03l57.25-70.032zm85.314 15.22l-39.156 97.217h38.78l.376-97.218zm58.78 1.967l-10.718 95.25h26.156z" vector-effect="non-scaling-stroke" stroke="none"/>
        </g>
      </g>
    </g>
    <g transform="translate(1290.0, 780.0)">
      <circle id="ITEM_4_BG" r="50" fill="var(--accent-1)" stroke="var(--accent-4)" stroke-width="2" fill-opacity="1.0"/>
      <rect id="ITEM_4_TEXT_BG" x="-208.0" y="89.0" width="416.0" height="202.0" rx="22" fill="var(--panel)" fill-opacity="0.94" stroke="var(--primary-text)" stroke-opacity="0.12" stroke-width="1.5"/>
      <rect id="TIMELINE_SNAKE_ART_CARD_SHEEN_4" x="-208.0" y="89.0" width="416.0" height="202.0" rx="16" fill="url(#svge1df00db-timeline-snake-card-sheen)" opacity="0.78" stroke="var(--accent-1)" stroke-opacity="1.0"/>
      <text id="ITEM_4_HEAD" text-anchor="middle" font-weight="bold" font-size="27" fill="var(--accent-1)" x="0.0" y="105.0" data-bg-id="ITEM_4_TEXT_BG" fill-opacity="1.0" style="font-size: 31px; font-family: 'Segoe UI Variable Display', 'Aptos Display', 'Inter', 'Segoe UI', Helvetica, Arial, sans-serif; font-weight: 700; font-kerning: normal; font-feature-settings: &quot;kern&quot; 1, &quot;liga&quot; 1; letter-spacing:-0.4px;" data-final-font-size="31">
        <tspan x="0.0" dy="31.02px">Entremont Photos</tspan>
      </text>
      <rect id="ITEM_4_HEAD_FRAME" x="-190" y="105" width="380" height="45" fill="none"/>
      <text id="ITEM_4_BODY" text-anchor="middle" font-size="19.5" fill="var(--primary-text)" x="0.0" y="155.0" data-bg-id="ITEM_4_TEXT_BG" style="font-size: 23px; font-family: 'Segoe UI Variable Text', 'Aptos', 'Inter', 'Segoe UI', Helvetica, Arial, sans-serif; font-weight: 400; font-kerning: normal; font-feature-settings: &quot;kern&quot; 1, &quot;liga&quot; 1;" opacity="0.9" data-final-font-size="23">
        <tspan x="0.0" dy="31.82px">Photographs confirmed sky lanterns</tspan>
        <tspan x="0.0" dy="26.45px">in Chartreuse area</tspan>
      </text>
      <rect id="ITEM_4_BODY_FRAME" x="-190" y="155.0" width="380" height="120" fill="none"/>
      <circle id="TIMELINE_SNAKE_ART_MILESTONE_AURA_4" cx="0" cy="0" r="58" fill="url(#svge1df00db-universal-icon-aura)" opacity="0.82" stroke="var(--accent-1)" stroke-opacity="1.0" display="none" data-suppressed-decoration="redundant-badge-ring"/>
      <circle id="ITEM_4_PAD" cx="0" cy="0" r="39" fill="var(--icon-pad-bg)" stroke="var(--accent-1)" opacity="1" fill-opacity="0.9" stroke-width="2" stroke-opacity="0.72" data-badge-layer="pad"/>
      <circle id="ITEM_4_PAD_INNER" cx="0" cy="0" r="30.42" fill="var(--accent-1)" fill-opacity="0.12" stroke="none" data-badge-layer="tint"/>
      <circle cx="0" cy="0" r="31.2" fill="none" stroke="var(--accent-4)" stroke-width="3" stroke-dasharray="6 4" display="none" data-suppressed-decoration="redundant-badge-ring"/>
      <g id="ITEM_4_ICON" transform="translate(-30.0, -30.0)" data-icon-size="60" stroke-linecap="round" stroke-linejoin="round" data-badge-treatment="clean">
        <g transform="translate(-4.765714285714288,-14.543571428571433) scale(2.172857142857143)">
          <path d="M5.5 11C5.22386 11 5 11.2239 5 11.5V13H9V11.5C9 11.2239 8.77614 11 8.5 11H5.5Z" fill="#D3D3D3"/>
          <path d="M21.5 11C21.2239 11 21 11.2239 21 11.5V13H27V11.5C27 11.2239 26.7761 11 26.5 11H21.5Z" fill="#D3D3D3"/>
          <path d="M2 14C2 12.8954 2.89543 12 4 12H28C29.1046 12 30 12.8954 30 14V16.5L28 22L30 27.5V28C30 29.1046 29.1046 30 28 30H4C2.89543 30 2 29.1046 2 28V27.5L3.5 22L2 16.5V14Z" fill="#E6E6E6"/>
          <path d="M2 16.5C2 16.2239 2.22386 16 2.5 16H29.5C29.7761 16 30 16.2239 30 16.5V27.5C30 27.7761 29.7761 28 29.5 28H2.5C2.22386 28 2 27.7761 2 27.5V16.5Z" fill="#533566"/>
          <path d="M22 22C22 25.3137 19.3137 28 16 28C12.6863 28 10 25.3137 10 22C10 18.6863 12.6863 16 16 16C19.3137 16 22 18.6863 22 22Z" fill="#321B41"/>
          <path d="M16 27C18.7614 27 21 24.7614 21 22C21 19.2386 18.7614 17 16 17C13.2386 17 11 19.2386 11 22C11 24.7614 13.2386 27 16 27ZM16 29C12.134 29 9 25.866 9 22C9 18.134 12.134 15 16 15C19.866 15 23 18.134 23 22C23 25.866 19.866 29 16 29Z" fill="#9B9B9B"/>
          <path d="M18.5 22C18.5 23.3807 17.3807 24.5 16 24.5C14.6193 24.5 13.5 23.3807 13.5 22C13.5 20.6193 14.6193 19.5 16 19.5C17.3807 19.5 18.5 20.6193 18.5 22Z" fill="#433B6B"/>
          <path d="M19.0825 19.875C19.4967 20.5924 19.4448 21.3979 18.9665 21.674C18.4882 21.9501 17.7647 21.5924 17.3505 20.875C16.9363 20.1575 16.9882 19.3521 17.4665 19.0759C17.9448 18.7998 18.6683 19.1575 19.0825 19.875Z" fill="white"/>
        </g>
      </g>
    </g>
    <g transform="translate(630.0, 780.0)">
      <circle id="ITEM_5_BG" r="50" fill="var(--accent-2)" stroke="var(--accent-5)" stroke-width="2" fill-opacity="1.0"/>
      <rect id="ITEM_5_TEXT_BG" x="-208.0" y="89.0" width="416.0" height="202.0" rx="22" fill="var(--panel)" fill-opacity="0.94" stroke="var(--primary-text)" stroke-opacity="0.12" stroke-width="1.5"/>
      <rect id="TIMELINE_SNAKE_ART_CARD_SHEEN_5" x="-208.0" y="89.0" width="416.0" height="202.0" rx="16" fill="url(#svge1df00db-timeline-snake-card-sheen)" opacity="0.78" stroke="var(--accent-2)" stroke-opacity="1.0"/>
      <text id="ITEM_5_HEAD" text-anchor="middle" font-weight="bold" font-size="27" fill="var(--accent-2)" x="0.0" y="105.0" data-bg-id="ITEM_5_TEXT_BG" fill-opacity="1.0" style="font-size: 31px; font-family: 'Segoe UI Variable Display', 'Aptos Display', 'Inter', 'Segoe UI', Helvetica, Arial, sans-serif; font-weight: 700; font-kerning: normal; font-feature-settings: &quot;kern&quot; 1, &quot;liga&quot; 1; letter-spacing:-0.4px;" data-final-font-size="31">
        <tspan x="0.0" dy="31.02px">Astronomical Streak</tspan>
      </text>
      <rect id="ITEM_5_HEAD_FRAME" x="-190" y="105" width="380" height="45" fill="none"/>
      <text id="ITEM_5_BODY" text-anchor="middle" font-size="19.5" fill="var(--primary-text)" x="0.0" y="155.0" data-bg-id="ITEM_5_TEXT_BG" style="font-size: 23px; font-family: 'Segoe UI Variable Text', 'Aptos', 'Inter', 'Segoe UI', Helvetica, Arial, sans-serif; font-weight: 400; font-kerning: normal; font-feature-settings: &quot;kern&quot; 1, &quot;liga&quot; 1;" opacity="0.9" data-final-font-size="23">
        <tspan x="0.0" dy="31.82px">Photographed white streak</tspan>
        <tspan x="0.0" dy="26.45px">confirmed as astronomical origin</tspan>
      </text>
      <rect id="ITEM_5_BODY_FRAME" x="-190" y="155.0" width="380" height="120" fill="none"/>
      <circle id="TIMELINE_SNAKE_ART_MILESTONE_AURA_5" cx="0" cy="0" r="58" fill="url(#svge1df00db-universal-icon-aura)" opacity="0.82" stroke="var(--accent-2)" stroke-opacity="1.0" display="none" data-suppressed-decoration="redundant-badge-ring"/>
      <circle id="ITEM_5_PAD" cx="0" cy="0" r="39" fill="var(--icon-pad-bg)" stroke="var(--accent-2)" opacity="1" fill-opacity="0.9" stroke-width="2" stroke-opacity="0.72" data-badge-layer="pad"/>
      <circle id="ITEM_5_PAD_INNER" cx="0" cy="0" r="30.42" fill="var(--accent-2)" fill-opacity="0.12" stroke="none" data-badge-layer="tint"/>
      <circle cx="0" cy="0" r="31.2" fill="none" stroke="var(--accent-5)" stroke-width="3" stroke-dasharray="6 4" display="none" data-suppressed-decoration="redundant-badge-ring"/>
      <g id="ITEM_5_ICON" transform="translate(-30.0, -30.0)" data-icon-size="60" stroke-linecap="round" stroke-linejoin="round" data-badge-treatment="clean">
        <g transform="translate(-5.804070796460181,-4.188849557522126) scale(2.153628318584071)">
          <path d="M16.25 29.25C16.25 29.6642 15.9143 30 15.5 30C15.0858 30 14.75 29.6642 14.75 29.25V18.2847L6.35413 29.6945C6.10863 30.0281 5.63916 30.0996 5.30554 29.8541C4.97192 29.6086 4.90047 29.1391 5.14597 28.8055L13.8421 16.9877C13.3669 16.9119 13 16.4964 13 16C13 15.4505 13.4497 15 13.9983 15H14.75V11.75C14.75 11.3358 15.0858 11 15.5 11C15.9143 11 16.25 11.3358 16.25 11.75V15H17.0018C17.5504 15 18 15.4505 18 16C18 16.421 17.7361 16.7839 17.366 16.9306L26.1041 28.8055C26.3496 29.1391 26.2782 29.6086 25.9446 29.8541C25.6109 30.0996 25.1415 30.0281 24.896 29.6945L16.25 17.9449V29.25Z" fill="#7167A4"/>
          <path d="M3.22683 4.27809C2.6088 5.92946 3.30622 7.78583 4.80973 8.60757L5.74923 8.95918L7.99999 8.00013L8.99999 4.00013L8.19939 2.40199L7.26328 2.05165C5.5897 1.68436 3.84485 2.62671 3.22683 4.27809Z" fill="#AEDDFF"/>
          <path d="M22.8343 8.94678L27.5555 10.7137L29 13.0001L28 15.0001L25.7687 15.3837L21.0817 13.6296L20 10.5001L22.8343 8.94678Z" fill="#D3D3D3"/>
          <path d="M8.59557 3.94216L11.9373 3.80078L23.1846 8.01009L20.731 14.566L9.48157 10.3559L7.48633 7.72365L8.59557 3.94216Z" fill="#BEBEBE"/>
          <path d="M11.9459 3.80389L8.19965 2.40186L5.74609 8.95777L9.49233 10.3598L11.9459 3.80389Z" fill="#5235A6"/>
          <path d="M29.39 11.4001L27.5169 10.6991L25.7644 15.3819L27.6375 16.0829C28.1547 16.2765 28.731 16.0141 28.9246 15.4969L29.9761 12.6872C30.1697 12.1699 29.9073 11.5937 29.39 11.4001Z" fill="#5235A6"/>
        </g>
      </g>
    </g>
    <line id="PHX_SEQUENCE_MIDROUTE_ARROW_1" x1="932.0" y1="360.0" x2="988.0" y2="360.0" stroke="var(--muted-text)" opacity="0.92" stroke-width="5" stroke-linecap="round" marker-end="url(#svge1df00db-PHX_SEQUENCE_DIRECTION_ARROW)" data-direction-cue="forward"/>
    <line id="PHX_SEQUENCE_MIDROUTE_ARROW_2" x1="1153.0" y1="780.0" x2="1097.0" y2="780.0" stroke="var(--muted-text)" opacity="0.92" stroke-width="5" stroke-linecap="round" marker-end="url(#svge1df00db-PHX_SEQUENCE_DIRECTION_ARROW)" data-direction-cue="forward"/>
  </g>
  <text id="SOURCE_NOTE" x="134.0" y="1058.0" fill="var(--muted-text)" opacity="0.88" style="font-family: var(--font-family); font-size: 20px;">Source: Introduction</text>
</svg>
